<svg width="85" height="95" viewBox="0 0 85 95" fill="none" xmlns="http://www.w3.org/2000/svg">
<g clip-path="url(#clip0_24_1422)">
<path d="M0.0214844 12.3075H22.6956V19.7073H9.31859V25.5892H19.1851V32.6571H9.31859V45.749H0.0214844V12.3075Z" fill="#5C3973"/>
<path d="M45.6129 9.73337C42.4566 8.53745 39.7596 8.56426 38.43 8.59001C36.2357 8.63235 34.4252 9.01688 33.1566 9.37636L25.1426 1.3623C26.2182 0.922036 27.7341 0.419681 29.6013 0.163564C30.539 0.0351534 32.8973 -0.213908 35.8205 0.376289C39.2269 1.06385 41.5524 2.518 42.8566 3.35021C48.2763 6.80955 51.1868 11.7752 52.5037 14.4482C51.3014 13.1292 49.0468 11.0344 45.6129 9.73337Z" fill="#F06043"/>
<path fill-rule="evenodd" clip-rule="evenodd" d="M54.8994 57.9557C55.0239 60.308 56.9247 61.4764 59.3705 61.4764C61.9723 61.4764 63.468 59.9654 63.468 58.0333C63.468 55.9396 61.6004 55.2783 60.0864 54.7421C59.0543 54.3766 58.1866 54.0693 58.1866 53.4062C58.1866 52.8767 58.545 52.6118 58.9966 52.6273C59.5575 52.6273 59.9784 52.9392 60.0094 53.6246H63.328C63.219 51.4434 61.5676 50.2129 59.0435 50.2129C56.7222 50.2129 54.9305 51.3654 54.9305 53.5156C54.9027 55.7918 56.7865 56.4169 58.315 56.9241C59.3495 57.2674 60.2212 57.5566 60.2274 58.2672C60.2274 58.7812 59.8069 59.0616 59.2615 59.0616C58.7009 59.0616 58.218 58.7812 58.1556 57.9557H54.8994ZM32.7783 50.3846H35.8316V61.368H32.7783V50.3846ZM0 50.3846H7.44679V52.8149H3.05329V54.7467H6.29391V57.068H3.05329V61.368H0V50.3846ZM16.0771 52.8308H12.1044V54.6222H15.6096V56.9434H12.1044V58.9222H16.0771V61.368H9.05078V50.3849H16.0771V52.8308ZM21.5916 50.3846H17.8994V61.368H20.9527V55.2607L23.0404 61.368H25.5956L27.6671 55.3076V61.368H30.7208V50.3846H27.0445L24.3493 57.5199L21.5916 50.3846ZM48.0607 61.368V50.3846H45.0071V56.6005L40.941 50.3846H37.8877V61.368H40.941V55.2296L45.0071 61.368H48.0607ZM50.1172 50.3846H53.1705V61.368H50.1172V50.3846ZM64.5898 50.3846H73.47V52.8149H70.5412V61.368H67.4876V52.8149H64.5898V50.3846ZM76.4135 59.5762H80.3085L80.9008 61.368H84.1256L80.1371 50.3846H76.6167L72.6123 61.368H75.8219L76.4135 59.5762ZM77.1928 57.2394L78.3612 53.6877L79.5454 57.2394H77.1928Z" fill="#5C3973"/>
<path d="M0.0205078 69.7383H84.0649V69.3947H0.0205078V69.7383Z" fill="#5C3973"/>
<path fill-rule="evenodd" clip-rule="evenodd" d="M34.3984 76.7426C34.3984 76.4844 34.6006 76.2822 34.881 76.2822C35.1562 76.2822 35.3636 76.4844 35.3636 76.7426C35.3636 77.0008 35.1562 77.2026 34.881 77.2026C34.6006 77.2026 34.3984 77.0008 34.3984 76.7426ZM34.4827 77.573H35.2684V80.6824H34.4827V77.573ZM12.4927 76.7648H11.707V80.6824H12.4927V76.7648ZM14.7822 78.1964C15.1975 78.1964 15.4726 78.4656 15.4726 78.9651V80.6824H16.2583V78.8586C16.2583 77.9999 15.7421 77.5282 15.0179 77.5282C14.6196 77.5282 14.2827 77.6969 14.0806 77.9604V77.5734H13.2949V80.6824H14.0806V78.9651C14.0806 78.4656 14.3557 78.1964 14.7822 78.1964ZM17.0774 78.2186H16.707V77.573H17.0774V76.8043H17.8687V77.573H18.5648V78.2186H17.8687V79.7229C17.8687 79.9303 17.953 80.0203 18.2 80.0203H18.5648V80.6824H18.0709C17.4761 80.6824 17.0774 80.4298 17.0774 79.7172V78.2186ZM18.8789 79.1281C18.8789 80.1046 19.5358 80.7332 20.4392 80.7332C21.2083 80.7332 21.7244 80.2785 21.8927 79.7063H21.0453C20.9444 79.9137 20.7592 80.0823 20.4223 80.0823C20.0293 80.0823 19.7153 79.8237 19.6758 79.3637H21.9491C21.9657 79.2628 21.9714 79.1616 21.9714 79.0607C21.9714 78.1346 21.3371 77.5229 20.4392 77.5229C19.5188 77.5229 18.8789 78.1459 18.8789 79.1281ZM21.1575 78.836H19.6815C19.7432 78.4095 20.041 78.1682 20.4167 78.1682C20.8209 78.1682 21.1462 78.4264 21.1575 78.836ZM23.3433 80.6824H22.5576V77.573H23.3433V78.0556C23.5397 77.736 23.8654 77.5282 24.2975 77.5282V78.3534H24.0897C23.6241 78.3534 23.3433 78.5329 23.3433 79.1334V80.6824ZM26.2568 78.1964C26.6721 78.1964 26.9472 78.4656 26.9472 78.9651V80.6824H27.7329V78.8586C27.7329 77.9999 27.2168 77.5282 26.4925 77.5282C26.0942 77.5282 25.7573 77.6969 25.5552 77.9604V77.5734H24.7695V80.6824H25.5552V78.9651C25.5552 78.4656 25.8303 78.1964 26.2568 78.1964ZM29.7158 77.5229C30.2154 77.5229 30.5579 77.7586 30.7428 78.0168V77.5734H31.5344V80.6828H30.7428V80.228C30.5579 80.4975 30.2041 80.7332 29.7102 80.7332C28.9245 80.7332 28.2959 80.0876 28.2959 79.1168C28.2959 78.1459 28.9245 77.5229 29.7158 77.5229ZM29.918 78.2133C29.4971 78.2133 29.0985 78.5276 29.0985 79.1168C29.0985 79.7063 29.4971 80.0428 29.918 80.0428C30.3501 80.0428 30.7428 79.7172 30.7428 79.1281C30.7428 78.5389 30.3501 78.2133 29.918 78.2133ZM32.0625 78.2186H32.4329V79.7172C32.4329 80.4298 32.8316 80.6824 33.4263 80.6824H33.9202V80.0203H33.5555C33.3085 80.0203 33.2246 79.9303 33.2246 79.7229V78.2186H33.9202V77.573H33.2246V76.8043H32.4329V77.573H32.0625V78.2186ZM35.8398 79.1281C35.8398 80.1046 36.5193 80.7332 37.4171 80.7332C38.3209 80.7332 39.0392 80.1046 39.0392 79.1281C39.0392 78.1459 38.3375 77.5229 37.4397 77.5229C36.5415 77.5229 35.8398 78.1459 35.8398 79.1281ZM38.231 79.1281C38.231 79.7454 37.8323 80.0485 37.4171 80.0485C36.9963 80.0485 36.6371 79.7454 36.6371 79.1281C36.6371 78.5051 37.0128 78.2077 37.428 78.2077C37.8436 78.2077 38.231 78.5051 38.231 79.1281ZM41.8056 78.9651C41.8056 78.4656 41.5305 78.1964 41.1152 78.1964C40.6887 78.1964 40.4136 78.4656 40.4136 78.9651V80.6824H39.6279V77.5734H40.4136V77.9604C40.6157 77.6969 40.9526 77.5282 41.3509 77.5282C42.0748 77.5282 42.5913 77.9999 42.5913 78.8586V80.6824H41.8056V78.9651ZM45.6002 78.0168C45.4153 77.7586 45.0728 77.5229 44.5732 77.5229C43.782 77.5229 43.1533 78.1459 43.1533 79.1168C43.1533 80.0876 43.782 80.7332 44.5676 80.7332C45.0615 80.7332 45.4153 80.4975 45.6002 80.228V80.6828H46.3918V77.5734H45.6002V78.0168ZM43.9559 79.1168C43.9559 78.5276 44.3545 78.2133 44.7754 78.2133C45.2075 78.2133 45.6002 78.5389 45.6002 79.1281C45.6002 79.7172 45.2075 80.0428 44.7754 80.0428C44.3545 80.0428 43.9559 79.7063 43.9559 79.1168ZM47.167 76.5292H47.9526V80.6824H47.167V76.5292ZM57.1758 76.7426C57.1758 76.4844 57.3779 76.2822 57.6584 76.2822C57.9335 76.2822 58.141 76.4844 58.141 76.7426C58.141 77.0008 57.9335 77.2026 57.6584 77.2026C57.3779 77.2026 57.1758 77.0008 57.1758 76.7426ZM57.2601 77.573H58.0457V80.6824H57.2601V77.573ZM54.1445 76.5292H54.9302V80.6824H54.1445V76.5292ZM52.8352 80.6824L52.577 79.9359H51.017L50.7584 80.6824H49.9336L51.3422 76.7595H52.2573L53.666 80.6824H52.8352ZM51.797 77.6686L51.2301 79.3073H52.3639L51.797 77.6686ZM56.4849 76.5292H55.6992V80.6824H56.4849V76.5292ZM61.0738 78.0168C60.8886 77.7586 60.5464 77.5229 60.0469 77.5229C59.2556 77.5229 58.627 78.1459 58.627 79.1168C58.627 80.0876 59.2556 80.7332 60.0412 80.7332C60.5351 80.7332 60.8886 80.4975 61.0738 80.228V80.6828H61.8655V77.5734H61.0738V78.0168ZM59.4295 79.1168C59.4295 78.5276 59.8278 78.2133 60.249 78.2133C60.6812 78.2133 61.0738 78.5389 61.0738 79.1281C61.0738 79.7172 60.6812 80.0428 60.249 80.0428C59.8278 80.0428 59.4295 79.7063 59.4295 79.1168ZM64.8183 78.9651C64.8183 78.4656 64.5432 78.1964 64.1279 78.1964C63.7014 78.1964 63.4266 78.4656 63.4266 78.9651V80.6824H62.6406V77.5734H63.4266V77.9604C63.6284 77.6969 63.9653 77.5282 64.3636 77.5282C65.0878 77.5282 65.604 77.9999 65.604 78.8586V80.6824H64.8183V78.9651ZM69.1695 78.6229C69.0012 77.9269 68.4791 77.5229 67.7048 77.5229C66.8069 77.5229 66.167 78.1516 66.167 79.1281C66.167 80.1046 66.8069 80.7332 67.7048 80.7332C68.4791 80.7332 69.0012 80.2954 69.1695 79.6332H68.3221C68.2269 79.9137 68.0247 80.0598 67.6991 80.0598C67.2613 80.0598 66.9696 79.7341 66.9696 79.1281C66.9696 78.522 67.2613 78.1907 67.6991 78.1907C68.0247 78.1907 68.2322 78.3594 68.3221 78.6229H69.1695ZM71.117 80.7332C70.2132 80.7332 69.5566 80.1046 69.5566 79.1281C69.5566 78.1459 70.1966 77.5229 71.117 77.5229C72.0148 77.5229 72.6491 78.1346 72.6491 79.0607C72.6491 79.1616 72.6434 79.2628 72.6269 79.3637H70.3536C70.3931 79.8237 70.707 80.0823 71.1 80.0823C71.437 80.0823 71.6222 79.9137 71.7231 79.7063H72.5704C72.4025 80.2785 71.886 80.7332 71.117 80.7332ZM70.3592 78.836H71.8352C71.8239 78.4264 71.4987 78.1682 71.0944 78.1682C70.7187 78.1682 70.4209 78.4095 70.3592 78.836ZM2.35739 84.3006H2.00391V83.6553H2.35739V83.498C2.35739 82.7346 2.78954 82.3811 3.66514 82.4033V83.0658C3.28343 83.0546 3.15431 83.178 3.15431 83.5259V83.6553H3.69865V84.3006H3.15431V86.7644H2.35739V84.3006ZM5.53785 86.8151C4.64003 86.8151 3.96094 86.1865 3.96094 85.21C3.96094 84.2279 4.66226 83.6049 5.56043 83.6049C6.45825 83.6049 7.15993 84.2279 7.15993 85.21C7.15993 86.1865 6.44167 86.8151 5.53785 86.8151ZM5.53785 86.1304C5.95307 86.1304 6.35171 85.8274 6.35171 85.21C6.35171 84.587 5.96436 84.2896 5.54914 84.2896C5.13392 84.2896 4.75786 84.587 4.75786 85.21C4.75786 85.8274 5.11699 86.1304 5.53785 86.1304ZM7.74902 86.7644H8.53466V85.2153C8.53466 84.6149 8.81512 84.4353 9.28114 84.4353H9.48892V83.6102C9.05677 83.6102 8.73116 83.818 8.53466 84.1376V83.6553H7.74902V86.7644ZM28.8291 82.6113H29.6148V86.7646H28.8291V82.6113ZM12.8157 86.8036C12.0019 86.8036 11.3732 86.3771 11.3623 85.6363H12.204C12.2263 85.9506 12.434 86.1584 12.7988 86.1584C13.1692 86.1584 13.3883 85.9619 13.3883 85.6811C13.3883 85.3119 13.0048 85.2005 12.5724 85.075C12.0123 84.9123 11.3703 84.7259 11.3732 83.9246C11.3732 83.2173 11.9458 82.7908 12.754 82.7908C13.5566 82.7908 14.1066 83.2007 14.157 83.9077H13.2927C13.2761 83.6495 13.0683 83.4477 12.7314 83.442C12.4228 83.4307 12.1927 83.5821 12.1927 83.902C12.1927 84.24 12.5643 84.3517 12.9878 84.4789C13.5491 84.6476 14.2018 84.8437 14.2018 85.6307C14.2018 86.248 13.7083 86.8036 12.8157 86.8036ZM16.2303 86.8154C15.3268 86.8154 14.6699 86.1867 14.6699 85.2102C14.6699 84.2281 15.3099 83.6051 16.2303 83.6051C17.1281 83.6051 17.7624 84.2168 17.7624 85.1428C17.7624 85.2437 17.7567 85.3446 17.7401 85.4459H15.4668C15.5064 85.9059 15.8207 86.1641 16.2133 86.1641C16.5502 86.1641 16.7354 85.9959 16.8363 85.7881H17.6837C17.5154 86.3606 16.9993 86.8154 16.2303 86.8154ZM15.4725 84.9181H16.9485C16.9372 84.5086 16.612 84.2503 16.2077 84.2503C15.832 84.2503 15.5342 84.4916 15.4725 84.9181ZM18.7554 86.7646L19.3223 85.7994L19.9619 86.7646H20.8487L19.8162 85.2042L20.8375 83.6556H19.9957L19.4232 84.6151L18.7892 83.6556H17.9023L18.9293 85.2042L17.9136 86.7646H18.7554ZM24.2192 86.7645H23.4279V86.3715C23.2314 86.6354 22.8889 86.8036 22.5015 86.8036C21.7776 86.8036 21.2559 86.3323 21.2559 85.4793V83.6555H22.0415V85.3668C22.0415 85.8667 22.3163 86.1358 22.7319 86.1358C23.1584 86.1358 23.4279 85.8667 23.4279 85.3668V83.6555H24.2192V86.7645ZM27.2623 84.099C27.0774 83.8407 26.7349 83.6051 26.2354 83.6051C25.4441 83.6051 24.8154 84.2281 24.8154 85.1989C24.8154 86.1701 25.4441 86.8154 26.2297 86.8154C26.7236 86.8154 27.0774 86.5797 27.2623 86.3102V86.7649H28.0539V83.6555H27.2623V84.099ZM25.618 85.1989C25.618 84.6098 26.0166 84.2955 26.4375 84.2955C26.8697 84.2955 27.2623 84.6207 27.2623 85.2102C27.2623 85.7994 26.8697 86.125 26.4375 86.125C26.0166 86.125 25.618 85.7881 25.618 85.1989ZM41.6154 84.0864C41.402 83.7946 41.009 83.6038 40.5994 83.6038C39.8021 83.6038 39.1738 84.2268 39.1738 85.1976C39.1738 86.1688 39.8021 86.8141 40.5938 86.8141C41.082 86.8141 41.4298 86.5897 41.6154 86.3032V86.7636H42.412V82.6104H41.6154V84.0864ZM39.9764 85.1976C39.9764 84.6085 40.375 84.2942 40.7959 84.2942C41.2281 84.2942 41.6207 84.6194 41.6207 85.2089C41.6207 85.7981 41.2281 86.1237 40.7959 86.1237C40.375 86.1237 39.9764 85.7868 39.9764 85.1976ZM33.0547 83.6038C33.5542 83.6038 33.8964 83.8394 34.0816 84.0977V83.6542H34.8733V86.7636H34.0816V86.3089C33.8964 86.5784 33.5429 86.8141 33.0491 86.8141C32.2634 86.8141 31.6348 86.1688 31.6348 85.1976C31.6348 84.2268 32.2634 83.6038 33.0547 83.6038ZM33.2568 84.2942C32.836 84.2942 32.4373 84.6085 32.4373 85.1976C32.4373 85.7868 32.836 86.1237 33.2568 86.1237C33.689 86.1237 34.0816 85.7981 34.0816 85.2089C34.0816 84.6194 33.689 84.2942 33.2568 84.2942ZM37.8261 85.0469C37.8261 84.5474 37.551 84.2779 37.1357 84.2779C36.7092 84.2779 36.4344 84.5474 36.4344 85.0469V86.7642H35.6484V83.6552H36.4344V84.0422C36.6362 83.7783 36.9731 83.6101 37.3714 83.6101C38.0957 83.6101 38.6118 84.0814 38.6118 84.94V86.7642H37.8261V85.0469ZM74.3105 82.8243C74.3105 82.566 74.5127 82.3643 74.7931 82.3643C75.068 82.3643 75.2757 82.566 75.2757 82.8243C75.2757 83.0825 75.068 83.2847 74.7931 83.2847C74.5127 83.2847 74.3105 83.0825 74.3105 82.8243ZM74.3949 83.6551H75.1805V86.7641H74.3949V83.6551ZM62.5281 83.6046C62.9377 83.6046 63.3307 83.7955 63.5441 84.0872V82.6112H64.341V86.7644H63.5441V86.3041C63.3586 86.5905 63.0107 86.8149 62.5225 86.8149C61.7312 86.8149 61.1025 86.1697 61.1025 85.1985C61.1025 84.2276 61.7312 83.6046 62.5281 83.6046ZM62.7246 84.295C62.3037 84.295 61.9051 84.6093 61.9051 85.1985C61.9051 85.7876 62.3037 86.1245 62.7246 86.1245C63.1568 86.1245 63.5498 85.7989 63.5498 85.2097C63.5498 84.6203 63.1568 84.295 62.7246 84.295ZM46.0983 82.8478C47.0413 82.8478 47.5126 83.3922 47.5126 84.0487C47.5126 84.526 47.2487 85.0086 46.6201 85.1769L47.5574 86.7651H46.6483L45.784 85.2386H45.4136V86.7651H44.6279V82.8478H46.0983ZM46.0704 83.4987H45.4136V84.6495H46.0704C46.5079 84.6495 46.7044 84.4195 46.7044 84.0656C46.7044 83.7178 46.5079 83.4987 46.0704 83.4987ZM49.5004 86.8149C48.597 86.8149 47.9404 86.1862 47.9404 85.2097C47.9404 84.2276 48.58 83.6046 49.5004 83.6046C50.3982 83.6046 51.0325 84.2163 51.0325 85.1424C51.0325 85.2433 51.0269 85.3442 51.0103 85.4454H48.737C48.7765 85.9054 49.0908 86.1637 49.4835 86.1637C49.8204 86.1637 50.0056 85.9954 50.1065 85.7876H50.9542C50.7856 86.3602 50.2695 86.8149 49.5004 86.8149ZM48.7426 84.9176H50.2187C50.2077 84.5081 49.8821 84.2498 49.4778 84.2498C49.1021 84.2498 48.8044 84.4911 48.7426 84.9176ZM54.852 85.1989C54.852 84.228 54.229 83.605 53.4321 83.605C52.9495 83.605 52.5903 83.8407 52.4051 84.1046V83.6555H51.6191V88.2465H52.4051V86.3214C52.5956 86.574 52.9438 86.8153 53.4321 86.8153C54.229 86.8153 54.852 86.1701 54.852 85.1989ZM52.4051 85.2102C52.4051 84.6207 52.8034 84.2954 53.2243 84.2954C53.6508 84.2954 54.0494 84.6097 54.0494 85.1989C54.0494 85.788 53.6508 86.1249 53.2243 86.1249C52.8034 86.1249 52.4051 85.7993 52.4051 85.2102ZM56.2339 86.7651H55.4482V83.656H56.2339V84.1383C56.4304 83.8187 56.7556 83.6109 57.1881 83.6109V84.436H56.9804C56.5147 84.436 56.2339 84.6156 56.2339 85.216V86.7651ZM57.499 85.2097C57.499 86.1862 58.1781 86.8149 59.0759 86.8149C59.9798 86.8149 60.698 86.1862 60.698 85.2097C60.698 84.2276 59.9963 83.6046 59.0985 83.6046C58.2003 83.6046 57.499 84.2276 57.499 85.2097ZM59.8898 85.2097C59.8898 85.8271 59.4915 86.1301 59.0759 86.1301C58.6551 86.1301 58.2959 85.8271 58.2959 85.2097C58.2959 84.5867 58.672 84.2893 59.0872 84.2893C59.5024 84.2893 59.8898 84.5867 59.8898 85.2097ZM67.2648 86.765H68.0561V83.656H67.2648V85.3673C67.2648 85.8672 66.9953 86.1363 66.5688 86.1363C66.1532 86.1363 65.8784 85.8672 65.8784 85.3673V83.656H65.0928V85.4798C65.0928 86.3328 65.6145 86.8041 66.3388 86.8041C66.7261 86.8041 67.0683 86.6359 67.2648 86.372V86.765ZM70.1901 83.6046C70.9648 83.6046 71.4866 84.0085 71.6548 84.7046H70.8075C70.7179 84.4407 70.5101 84.2724 70.1848 84.2724C69.7467 84.2724 69.4549 84.6037 69.4549 85.2097C69.4549 85.8158 69.7467 86.1414 70.1848 86.1414C70.5101 86.1414 70.7122 85.9954 70.8075 85.7149H71.6548C71.4866 86.3771 70.9648 86.8149 70.1901 86.8149C69.2923 86.8149 68.6523 86.1862 68.6523 85.2097C68.6523 84.2333 69.2923 83.6046 70.1901 83.6046ZM71.9736 84.3013H72.344V85.7999C72.344 86.5125 72.7427 86.7651 73.3375 86.7651H73.8314V86.1029H73.4666C73.2196 86.1029 73.1353 86.013 73.1353 85.8055V84.3013H73.8314V83.656H73.1353V82.887H72.344V83.656H71.9736V84.3013ZM77.2358 86.0412L76.4501 83.656H75.6084L76.7532 86.7651H77.7074L78.8578 83.656H78.0218L77.2358 86.0412ZM80.5496 86.8159C79.6461 86.8159 78.9893 86.1872 78.9893 85.2107C78.9893 84.2286 79.6292 83.6056 80.5496 83.6056C81.4474 83.6056 82.0817 84.2173 82.0817 85.1433C82.0817 85.2442 82.0761 85.3451 82.0595 85.4464H79.7862C79.8257 85.9064 80.14 86.1646 80.5327 86.1646C80.8696 86.1646 81.0548 85.9964 81.1557 85.7886H82.0034C81.8348 86.3611 81.3186 86.8159 80.5496 86.8159ZM79.7922 84.9186H81.2679C81.2569 84.509 80.9313 84.2508 80.527 84.2508C80.1513 84.2508 79.8536 84.4921 79.7922 84.9186ZM20.5151 88.6934H19.7295V92.8466H20.5151V91.1293C20.5151 90.6298 20.7903 90.3602 21.2168 90.3602C21.632 90.3602 21.9072 90.6298 21.9072 91.1293V92.8466H22.6928V91.0224C22.6928 90.1637 22.182 89.6924 21.4807 89.6924C21.0651 89.6924 20.7173 89.8607 20.5151 90.1246V88.6934ZM16.7427 88.6934H15.957V92.8466H16.7427V88.6934ZM5.35595 91.1797H7.03411V92.8466H7.81975V88.9294H7.03411V90.5401H5.35595V88.9294H4.57031V92.8466H5.35595V91.1797ZM8.44922 91.2923C8.44922 92.2687 9.10574 92.8974 10.0096 92.8974C10.7783 92.8974 11.2947 92.4427 11.463 91.8701H10.6156C10.5144 92.0779 10.3295 92.2465 9.99262 92.2465C9.59963 92.2465 9.28566 91.9879 9.24614 91.5279H11.5194C11.536 91.427 11.5417 91.3258 11.5417 91.2249C11.5417 90.2988 10.9074 89.6871 10.0096 89.6871C9.08916 89.6871 8.44922 90.3101 8.44922 91.2923ZM10.7278 91.0002H9.25179C9.31352 90.5736 9.61092 90.3323 9.98698 90.3323C10.3913 90.3323 10.7165 90.5906 10.7278 91.0002ZM13.3633 89.6871C13.8628 89.6871 14.205 89.9228 14.3902 90.181V89.7376H15.1819V92.8469H14.3902V92.3922C14.205 92.6617 13.8515 92.8974 13.3576 92.8974C12.572 92.8974 11.9434 92.2522 11.9434 91.281C11.9434 90.3101 12.572 89.6871 13.3633 89.6871ZM13.5654 90.3775C13.1446 90.3775 12.7459 90.6918 12.7459 91.281C12.7459 91.8701 13.1446 92.207 13.5654 92.207C13.9976 92.207 14.3902 91.8814 14.3902 91.2923C14.3902 90.7028 13.9976 90.3775 13.5654 90.3775ZM17.6448 90.3828H17.2744V89.7376H17.6448V88.9685H18.4361V89.7376H19.1321V90.3828H18.4361V91.8871C18.4361 92.0945 18.5204 92.1844 18.7674 92.1844H19.1321V92.8466H18.6383C18.0431 92.8466 17.6448 92.594 17.6448 91.8814V90.3828ZM24.3823 91.9828H23.5518L23.1758 93.6553H23.6866L24.3823 91.9828ZM30.3244 88.4473C30.0439 88.4473 29.8418 88.6491 29.8418 88.9073C29.8418 89.1655 30.0439 89.3677 30.3244 89.3677C30.5996 89.3677 30.807 89.1655 30.807 88.9073C30.807 88.6491 30.5996 88.4473 30.3244 88.4473ZM30.7117 89.7381H29.9261V92.8471H30.7117V89.7381ZM29.2597 90.1307C29.2597 89.4742 28.7884 88.9299 27.8454 88.9299H26.375V92.8471H27.1606V91.3206H27.5311L28.3954 92.8471H29.3048L28.3675 91.2589C28.9958 91.0906 29.2597 90.608 29.2597 90.1307ZM27.1606 89.5807H27.8175C28.255 89.5807 28.4515 89.7998 28.4515 90.1477C28.4515 90.5015 28.255 90.7315 27.8175 90.7315H27.1606V89.5807ZM32.7139 89.6874C33.2021 89.6874 33.5556 89.9118 33.7408 90.1813V89.7378H34.5324V92.8694C34.5324 93.7112 34.016 94.3793 32.9943 94.3793C32.1187 94.3793 31.507 93.9415 31.4287 93.2289H32.2087C32.2874 93.5094 32.5791 93.6946 32.9721 93.6946C33.4043 93.6946 33.7408 93.4477 33.7408 92.8694V92.3868C33.5556 92.6564 33.2021 92.8977 32.7139 92.8977C31.9226 92.8977 31.2939 92.2524 31.2939 91.2812C31.2939 90.3104 31.9226 89.6874 32.7139 89.6874ZM32.916 90.3778C32.4948 90.3778 32.0965 90.6921 32.0965 91.2812C32.0965 91.8704 32.4948 92.2073 32.916 92.2073C33.3478 92.2073 33.7408 91.8817 33.7408 91.2925C33.7408 90.703 33.3478 90.3778 32.916 90.3778ZM36.0933 88.6939H35.3076V92.8471H36.0933V91.1298C36.0933 90.6303 36.3684 90.3607 36.7949 90.3607C37.2105 90.3607 37.4853 90.6303 37.4853 91.1298V92.8471H38.271V91.0229C38.271 90.1642 37.7601 89.6929 37.0588 89.6929C36.6436 89.6929 36.2954 89.8612 36.0933 90.1251V88.6939ZM39.0901 90.3833H38.7197V89.7381H39.0901V88.969H39.8814V89.7381H40.5775V90.3833H39.8814V91.8876C39.8814 92.095 39.9657 92.1849 40.2127 92.1849H40.5775V92.8471H40.0836C39.4884 92.8471 39.0901 92.5945 39.0901 91.8819V90.3833ZM40.9619 91.8653C40.9954 92.4432 41.5401 92.8979 42.3201 92.8979C43.0775 92.8979 43.5435 92.494 43.5435 91.9606C43.5303 91.2931 42.9337 91.138 42.4416 91.0101C42.0936 90.9197 41.798 90.8428 41.798 90.608C41.798 90.4284 41.9497 90.3106 42.2414 90.3106C42.5501 90.3106 42.741 90.4732 42.7635 90.7146H43.5157C43.4705 90.0972 43.0161 89.6876 42.264 89.6876C41.495 89.6876 41.0349 90.1028 41.0349 90.6193C41.0349 91.2903 41.6439 91.4434 42.1447 91.5694C42.4945 91.6574 42.7914 91.7321 42.7914 91.9606C42.7914 92.1401 42.6231 92.2805 42.3145 92.2805C42.0001 92.2805 41.7814 92.101 41.7532 91.8653H40.9619ZM45.0975 91.9828H44.2667L43.8906 93.6553H44.4014L45.0975 91.9828ZM56.8674 90.1694C56.6539 89.8776 56.2613 89.6868 55.8514 89.6868C55.0544 89.6868 54.4258 90.3098 54.4258 91.2806C54.4258 92.2518 55.0544 92.8971 55.8457 92.8971C56.334 92.8971 56.6821 92.6727 56.8674 92.3862V92.8466H57.6643V88.6934H56.8674V90.1694ZM55.2284 91.2806C55.2284 90.6915 55.627 90.3772 56.0479 90.3772C56.48 90.3772 56.8727 90.7024 56.8727 91.2919C56.8727 91.8811 56.48 92.2067 56.0479 92.2067C55.627 92.2067 55.2284 91.8698 55.2284 91.2806ZM48.3066 89.6868C48.8062 89.6868 49.1484 89.9224 49.3336 90.1807V89.7372H50.1252V92.8466H49.3336V92.3919C49.1484 92.6614 48.7949 92.8971 48.301 92.8971C47.5154 92.8971 46.8867 92.2518 46.8867 91.2806C46.8867 90.3098 47.5154 89.6868 48.3066 89.6868ZM48.5088 90.3772C48.0876 90.3772 47.6893 90.6915 47.6893 91.2806C47.6893 91.8698 48.0876 92.2067 48.5088 92.2067C48.9406 92.2067 49.3336 91.8811 49.3336 91.2919C49.3336 90.7024 48.9406 90.3772 48.5088 90.3772ZM53.0781 91.129C53.0781 90.6294 52.8033 90.3599 52.3877 90.3599C51.9612 90.3599 51.686 90.6294 51.686 91.129V92.8463H50.9004V89.7372H51.686V90.1242C51.8882 89.8604 52.2251 89.6921 52.6237 89.6921C53.3476 89.6921 53.8637 90.1634 53.8637 91.0221V92.8463H53.0781V91.129ZM71.8643 88.9073C71.8643 88.6491 72.066 88.4473 72.3469 88.4473C72.6217 88.4473 72.8295 88.6491 72.8295 88.9073C72.8295 89.1655 72.6217 89.3677 72.3469 89.3677C72.066 89.3677 71.8643 89.1655 71.8643 88.9073ZM71.9482 89.7381H72.7339V92.8471H71.9482V89.7381ZM62.1648 88.9304H61.3735V91.6803C61.3735 91.989 61.2274 92.1855 60.9357 92.1855C60.6383 92.1855 60.4866 91.9837 60.4809 91.6524H59.6953C59.6953 92.4437 60.2118 92.8871 60.947 92.8871C61.6709 92.8871 62.1648 92.4546 62.1648 91.6803V88.9304ZM65.1799 92.847H65.9711V89.738H65.1799V91.4497C65.1799 91.9492 64.9103 92.2184 64.4838 92.2184C64.0686 92.2184 63.7934 91.9492 63.7934 91.4497V89.738H63.0078V91.5618C63.0078 92.4149 63.5299 92.8862 64.2538 92.8862C64.6412 92.8862 64.9834 92.7179 65.1799 92.454V92.847ZM67.9324 92.8979C67.1524 92.8979 66.6077 92.4432 66.5742 91.8653H67.3655C67.3937 92.101 67.6124 92.2805 67.9268 92.2805C68.2355 92.2805 68.4037 92.1401 68.4037 91.9606C68.4037 91.7321 68.1068 91.6574 67.757 91.5694C67.2562 91.4434 66.6472 91.2903 66.6472 90.6193C66.6472 90.1028 67.1073 89.6876 67.8763 89.6876C68.6284 89.6876 69.0828 90.0972 69.128 90.7146H68.3759C68.3533 90.4732 68.1624 90.3106 67.8537 90.3106C67.562 90.3106 67.4103 90.4284 67.4103 90.608C67.4103 90.8428 67.7059 90.9197 68.0539 91.0101C68.546 91.138 69.1426 91.2931 69.1558 91.9606C69.1558 92.494 68.6898 92.8979 67.9324 92.8979ZM69.5273 90.3833H69.8978V91.8819C69.8978 92.5945 70.296 92.8471 70.8912 92.8471H71.3851V92.1849H71.0203C70.7734 92.1849 70.689 92.095 70.689 91.8876V90.3833H71.3851V89.7381H70.689V88.969H69.8978V89.7381H69.5273V90.3833ZM76.3052 90.7876C76.1373 90.0915 75.6152 89.6876 74.8405 89.6876C73.9427 89.6876 73.3027 90.3163 73.3027 91.2928C73.3027 92.2692 73.9427 92.8979 74.8405 92.8979C75.6152 92.8979 76.1373 92.4601 76.3052 91.7979H75.4579C75.3626 92.0784 75.1605 92.2244 74.8348 92.2244C74.397 92.2244 74.1053 91.8988 74.1053 91.2928C74.1053 90.6867 74.397 90.3554 74.8348 90.3554C75.1605 90.3554 75.3682 90.5237 75.4579 90.7876H76.3052ZM78.2527 92.8979C77.3489 92.8979 76.6924 92.2692 76.6924 91.2928C76.6924 90.3106 77.3323 89.6876 78.2527 89.6876C79.1505 89.6876 79.7848 90.2993 79.7848 91.2254C79.7848 91.3263 79.7792 91.4275 79.7626 91.5284H77.4893C77.5288 91.9884 77.8428 92.247 78.2358 92.247C78.5727 92.247 78.7579 92.0784 78.8588 91.8706H79.7062C79.5379 92.4432 79.0218 92.8979 78.2527 92.8979ZM77.4949 91.0007H78.971C78.9597 90.5911 78.6344 90.3328 78.2305 90.3328C77.8544 90.3328 77.5567 90.5741 77.4949 91.0007Z" fill="#5C3973"/>
<path d="M71.6567 46.1934C64.2095 46.1934 58.4226 42.6356 58.043 35.4731H67.9567C68.1465 37.987 69.6169 38.8411 71.3247 38.8411C72.9849 38.8411 74.2658 37.987 74.2658 36.4218C74.2178 31.0617 57.9953 33.5756 58.1379 21.9544C58.1379 15.4082 63.5929 11.8981 70.6608 11.8981C78.3446 11.8981 83.3731 15.6453 83.7051 22.2863H73.6015C73.5066 20.1993 72.226 19.2507 70.5179 19.2507C69.1424 19.203 68.0516 20.0095 68.0516 21.622C68.0516 26.6029 84.1319 24.99 84.1319 35.7102C84.1319 41.5921 79.5783 46.1934 71.6567 46.1934Z" fill="#5C3973"/>
<path d="M39.4331 21.0558C43.9518 21.0558 47.6278 24.7321 47.6278 29.2505C47.6278 33.7692 43.9518 37.4455 39.4331 37.4455C34.9144 37.4455 31.2384 33.7692 31.2384 29.2505C31.2384 24.7321 34.9144 21.0558 39.4331 21.0558ZM39.4331 12.308C30.076 12.308 22.4902 19.8934 22.4902 29.2505C22.4902 38.6079 30.076 46.1934 39.4331 46.1934C48.7905 46.1934 56.3759 38.6079 56.3759 29.2505C56.3759 19.8934 48.7905 12.308 39.4331 12.308Z" fill="#60AD8F"/>
</g>
<defs>
<clipPath id="clip0_24_1422">
<rect width="84.1319" height="94.3786" fill="white"/>
</clipPath>
</defs>
</svg>
