<svg width="305" height="26" viewBox="0 0 305 26" fill="none" xmlns="http://www.w3.org/2000/svg">
<path d="M211.193 26H211.781V6.30385H211.193V26Z" fill="#F9F2EA"/>
<path d="M221.557 6.85237H222.379V10.9062H221.557V6.85237Z" fill="#F9F2EA"/>
<path d="M225.47 9.13092C225.47 8.61391 225.182 8.33518 224.746 8.33518C224.3 8.33518 224.012 8.61391 224.012 9.13092V10.9082H223.189V7.69051H224.012V8.09122C224.224 7.81818 224.576 7.64374 224.994 7.64374C225.751 7.64374 226.292 8.1323 226.292 9.02094V10.9082H225.47V9.13092Z" fill="#F9F2EA"/>
<path d="M227.204 8.35857H226.816V7.69051H227.204V6.89477H228.033V7.69051H228.762V8.35857H228.033V9.91527C228.033 10.1302 228.121 10.2231 228.38 10.2231H228.762V10.9082H228.244C227.621 10.9082 227.204 10.6465 227.204 9.90959V8.35857Z" fill="#F9F2EA"/>
<path d="M230.778 10.9609C229.832 10.9609 229.145 10.3106 229.145 9.29995C229.145 8.283 229.814 7.63895 230.778 7.63895C231.718 7.63895 232.383 8.27162 232.383 9.23042C232.383 9.33471 232.377 9.43899 232.359 9.54391H229.979C230.02 10.0198 230.349 10.2872 230.761 10.2872C231.113 10.2872 231.307 10.1127 231.413 9.89785H232.3C232.124 10.4907 231.583 10.9609 230.778 10.9609ZM229.985 8.99783H231.531C231.518 8.57374 231.178 8.30639 230.755 8.30639C230.361 8.30639 230.05 8.55667 229.985 8.99783Z" fill="#F9F2EA"/>
<path d="M233.801 10.9082H232.979V7.69051H233.801V8.18982C234.007 7.85863 234.348 7.64374 234.801 7.64374V8.49762H234.583C234.095 8.49762 233.801 8.68344 233.801 9.30536V10.9082Z" fill="#F9F2EA"/>
<path d="M237.634 9.13092C237.634 8.61391 237.346 8.33518 236.911 8.33518C236.464 8.33518 236.176 8.61391 236.176 9.13092V10.9082H235.354V7.69051H236.176V8.09122C236.388 7.81818 236.74 7.64374 237.158 7.64374C237.916 7.64374 238.456 8.1323 238.456 9.02094V10.9082H237.634V9.13092Z" fill="#F9F2EA"/>
<path d="M240.514 7.637C241.037 7.637 241.396 7.88097 241.589 8.14769V7.68946H242.418V10.9072H241.589V10.4363C241.396 10.715 241.025 10.959 240.508 10.959C239.685 10.959 239.027 10.2916 239.027 9.28662C239.027 8.28168 239.685 7.637 240.514 7.637ZM240.726 8.3512C240.285 8.3512 239.867 8.6767 239.867 9.28662C239.867 9.89653 240.285 10.2448 240.726 10.2448C241.178 10.2448 241.589 9.90791 241.589 9.29799C241.589 8.68808 241.178 8.3512 240.726 8.3512Z" fill="#F9F2EA"/>
<path d="M243.352 8.35857H242.965V7.69051H243.352V6.89477H244.181V7.69051H244.91V8.35857H244.181V9.91527C244.181 10.1302 244.269 10.2231 244.528 10.2231H244.91V10.9082H244.392C243.77 10.9082 243.352 10.6465 243.352 9.90959V8.35857Z" fill="#F9F2EA"/>
<path d="M245.414 6.83094C245.414 6.56359 245.625 6.35438 245.919 6.35438C246.207 6.35438 246.425 6.56359 246.425 6.83094C246.425 7.09829 246.207 7.30749 245.919 7.30749C245.625 7.30749 245.414 7.09829 245.414 6.83094ZM245.502 7.69051H246.325V10.9082H245.502V7.69051Z" fill="#F9F2EA"/>
<path d="M248.581 10.9609C247.641 10.9609 246.93 10.3106 246.93 9.29995C246.93 8.283 247.664 7.63895 248.605 7.63895C249.545 7.63895 250.279 8.283 250.279 9.29995C250.279 10.3106 249.527 10.9609 248.581 10.9609ZM248.581 10.2524C249.016 10.2524 249.433 9.93893 249.433 9.29995C249.433 8.65527 249.028 8.34747 248.593 8.34747C248.158 8.34747 247.764 8.65527 247.764 9.29995C247.764 9.93893 248.14 10.2524 248.581 10.2524Z" fill="#F9F2EA"/>
<path d="M253.165 9.13092C253.165 8.61391 252.877 8.33518 252.442 8.33518C251.996 8.33518 251.708 8.61391 251.708 9.13092V10.9082H250.885V7.69051H251.708V8.09122C251.919 7.81818 252.272 7.64374 252.689 7.64374C253.447 7.64374 253.988 8.1323 253.988 9.02094V10.9082H253.165V9.13092Z" fill="#F9F2EA"/>
<path d="M256.044 7.637C256.567 7.637 256.926 7.88097 257.119 8.14769V7.68946H257.948V10.9072H257.119V10.4363C256.926 10.715 256.555 10.959 256.038 10.959C255.215 10.959 254.557 10.2916 254.557 9.28662C254.557 8.28168 255.215 7.637 256.044 7.637ZM256.255 8.3512C255.815 8.3512 255.397 8.6767 255.397 9.28662C255.397 9.89653 255.815 10.2448 256.255 10.2448C256.708 10.2448 257.119 9.90791 257.119 9.29799C257.119 8.68808 256.708 8.3512 256.255 8.3512Z" fill="#F9F2EA"/>
<path d="M258.754 6.6084H259.577V10.9062H258.754V6.6084Z" fill="#F9F2EA"/>
<path d="M264.299 10.1359H262.666L262.395 10.9082H261.531L263.006 6.84863H263.965L265.439 10.9082H264.57L264.299 10.1359ZM263.483 7.7891L262.889 9.48549H264.076L263.483 7.7891Z" fill="#F9F2EA"/>
<path d="M265.992 6.6084H266.814V10.9062H265.992V6.6084Z" fill="#F9F2EA"/>
<path d="M267.625 6.6084H268.448V10.9062H267.625V6.6084Z" fill="#F9F2EA"/>
<path d="M269.17 6.83094C269.17 6.56359 269.381 6.35438 269.675 6.35438C269.963 6.35438 270.181 6.56359 270.181 6.83094C270.181 7.09829 269.963 7.30749 269.675 7.30749C269.381 7.30749 269.17 7.09829 269.17 6.83094ZM269.258 7.69051H270.081V10.9082H269.258V7.69051Z" fill="#F9F2EA"/>
<path d="M272.169 7.637C272.691 7.637 273.051 7.88097 273.244 8.14769V7.68946H274.073V10.9072H273.244V10.4363C273.051 10.715 272.68 10.959 272.163 10.959C271.34 10.959 270.682 10.2916 270.682 9.28662C270.682 8.28168 271.34 7.637 272.169 7.637ZM272.38 8.3512C271.94 8.3512 271.522 8.6767 271.522 9.28662C271.522 9.89653 271.94 10.2448 272.38 10.2448C272.833 10.2448 273.244 9.90791 273.244 9.29799C273.244 8.68808 272.833 8.3512 272.38 8.3512Z" fill="#F9F2EA"/>
<path d="M277.157 9.13092C277.157 8.61391 276.868 8.33518 276.434 8.33518C275.987 8.33518 275.699 8.61391 275.699 9.13092V10.9082H274.877V7.69051H275.699V8.09122C275.911 7.81818 276.264 7.64374 276.681 7.64374C277.439 7.64374 277.979 8.1323 277.979 9.02094V10.9082H277.157V9.13092Z" fill="#F9F2EA"/>
<path d="M280.161 7.637C280.972 7.637 281.519 8.05478 281.694 8.7753H280.807C280.713 8.50226 280.496 8.32845 280.155 8.32845C279.697 8.32845 279.391 8.67101 279.391 9.29799C279.391 9.92497 279.697 10.2618 280.155 10.2618C280.496 10.2618 280.707 10.1114 280.807 9.82069H281.694C281.519 10.5064 280.972 10.959 280.161 10.959C279.221 10.959 278.551 10.3086 278.551 9.29799C278.551 8.28737 279.221 7.637 280.161 7.637Z" fill="#F9F2EA"/>
<path d="M283.721 10.9609C282.776 10.9609 282.088 10.3106 282.088 9.29995C282.088 8.283 282.757 7.63895 283.721 7.63895C284.662 7.63895 285.325 8.27162 285.325 9.23042C285.325 9.33471 285.32 9.43899 285.302 9.54391H282.922C282.963 10.0198 283.293 10.2872 283.704 10.2872C284.056 10.2872 284.25 10.1127 284.356 9.89785H285.243C285.067 10.4907 284.527 10.9609 283.721 10.9609ZM282.928 8.99783H284.474C284.462 8.57374 284.121 8.30639 283.698 8.30639C283.304 8.30639 282.993 8.55667 282.928 8.99783Z" fill="#F9F2EA"/>
<path d="M221.644 15.089H221.273V14.421H221.644V14.2585C221.644 13.4685 222.096 13.1026 223.013 13.1259V13.8111C222.613 13.7997 222.478 13.9274 222.478 14.2876V14.421H223.048V15.089H222.478V17.6387H221.644V15.089Z" fill="#F9F2EA"/>
<path d="M225.03 17.6914C224.09 17.6914 223.379 17.041 223.379 16.0304C223.379 15.0135 224.114 14.3694 225.054 14.3694C225.994 14.3694 226.729 15.0135 226.729 16.0304C226.729 17.041 225.976 17.6914 225.03 17.6914ZM225.03 16.9829C225.465 16.9829 225.882 16.6694 225.882 16.0304C225.882 15.3857 225.477 15.0779 225.042 15.0779C224.607 15.0779 224.213 15.3857 224.213 16.0304C224.213 16.6694 224.589 16.9829 225.03 16.9829Z" fill="#F9F2EA"/>
<path d="M228.156 17.6387H227.334V14.421H228.156V14.9203C228.362 14.5891 228.703 14.3742 229.155 14.3742V15.2281H228.938C228.45 15.2281 228.156 15.4139 228.156 16.0358V17.6387Z" fill="#F9F2EA"/>
<path d="M232.523 17.6797C231.67 17.6797 231.012 17.2385 231 16.4719H231.882C231.905 16.7967 232.123 17.0116 232.505 17.0116C232.892 17.0116 233.121 16.8081 233.121 16.518C233.121 15.6407 231.006 16.1698 231.012 14.7003C231.012 13.9684 231.612 13.5266 232.458 13.5266C233.298 13.5266 233.874 13.9507 233.927 14.6826H233.022C233.004 14.4152 232.787 14.206 232.434 14.2003C232.111 14.189 231.87 14.3457 231.87 14.6769C231.87 15.4903 233.974 15.0371 233.974 16.4662C233.974 17.1045 233.456 17.6797 232.523 17.6797Z" fill="#F9F2EA"/>
<path d="M236.107 17.6914C235.161 17.6914 234.473 17.041 234.473 16.0304C234.473 15.0135 235.143 14.3694 236.107 14.3694C237.047 14.3694 237.711 15.0021 237.711 15.9609C237.711 16.0652 237.706 16.1695 237.688 16.2744H235.308C235.349 16.7503 235.678 17.0177 236.089 17.0177C236.442 17.0177 236.635 16.8432 236.741 16.6283H237.629C237.452 17.2212 236.912 17.6914 236.107 17.6914ZM235.314 15.7283H236.859C236.847 15.3042 236.507 15.0369 236.083 15.0369C235.689 15.0369 235.379 15.2871 235.314 15.7283Z" fill="#F9F2EA"/>
<path d="M239.438 16.6401L238.844 17.6387H237.963L239.026 16.0245L237.951 14.4216H238.879L239.544 15.4145L240.143 14.4216H241.024L239.955 16.0245L241.036 17.6387H240.108L239.438 16.6401Z" fill="#F9F2EA"/>
<path d="M244.556 17.6392H243.728V17.2328C243.522 17.5059 243.164 17.6797 242.758 17.6797C242 17.6797 241.453 17.1918 241.453 16.3094V14.4215H242.276V16.1931C242.276 16.7101 242.564 16.9889 242.999 16.9889C243.445 16.9889 243.728 16.7101 243.728 16.1931V14.4215H244.556V17.6392Z" fill="#F9F2EA"/>
<path d="M246.643 14.3694C247.166 14.3694 247.525 14.6134 247.718 14.8801V14.4219H248.547V17.6396H247.718V17.1687C247.525 17.4481 247.154 17.6914 246.637 17.6914C245.814 17.6914 245.156 17.024 245.156 16.019C245.156 15.0141 245.814 14.3694 246.643 14.3694ZM246.855 15.0836C246.414 15.0836 245.996 15.4091 245.996 16.019C245.996 16.629 246.414 16.9772 246.855 16.9772C247.307 16.9772 247.718 16.6403 247.718 16.0304C247.718 15.4205 247.307 15.0836 246.855 15.0836Z" fill="#F9F2EA"/>
<path d="M249.35 13.3408H250.172V17.6387H249.35V13.3408Z" fill="#F9F2EA"/>
<path d="M253.657 14.3694C254.18 14.3694 254.539 14.6134 254.732 14.8801V14.4219H255.561V17.6396H254.732V17.1687C254.539 17.4481 254.168 17.6914 253.651 17.6914C252.828 17.6914 252.17 17.024 252.17 16.019C252.17 15.0141 252.828 14.3694 253.657 14.3694ZM253.868 15.0836C253.428 15.0836 253.011 15.4091 253.011 16.019C253.011 16.629 253.428 16.9772 253.868 16.9772C254.321 16.9772 254.732 16.6403 254.732 16.0304C254.732 15.4205 254.321 15.0836 253.868 15.0836Z" fill="#F9F2EA"/>
<path d="M258.647 15.8614C258.647 15.3444 258.359 15.0657 257.925 15.0657C257.478 15.0657 257.19 15.3444 257.19 15.8614V17.6387H256.367V14.421H257.19V14.8217C257.401 14.5486 257.754 14.3742 258.171 14.3742C258.93 14.3742 259.47 14.8621 259.47 15.7514V17.6387H258.647V15.8614Z" fill="#F9F2EA"/>
<path d="M261.534 14.3694C261.963 14.3694 262.374 14.5666 262.598 14.8687V13.3411H263.432V17.6396H262.598V17.163C262.404 17.4594 262.039 17.6914 261.528 17.6914C260.699 17.6914 260.041 17.024 260.041 16.019C260.041 15.0141 260.699 14.3694 261.534 14.3694ZM261.739 15.0836C261.298 15.0836 260.882 15.4091 260.882 16.019C260.882 16.629 261.298 16.9772 261.739 16.9772C262.192 16.9772 262.603 16.6403 262.603 16.0304C262.603 15.4205 262.192 15.0836 261.739 15.0836Z" fill="#F9F2EA"/>
<path d="M267.173 13.5848C268.16 13.5848 268.653 14.1479 268.653 14.8274C268.653 15.321 268.377 15.8209 267.719 15.9947L268.7 17.6387H267.749L266.843 16.0592H266.456V17.6387H265.633V13.5848H267.173ZM267.143 14.2585H266.456V15.4493H267.143C267.601 15.4493 267.807 15.211 267.807 14.8451C267.807 14.4848 267.601 14.2585 267.143 14.2585Z" fill="#F9F2EA"/>
<path d="M270.823 17.6914C269.877 17.6914 269.189 17.041 269.189 16.0304C269.189 15.0135 269.859 14.3694 270.823 14.3694C271.763 14.3694 272.427 15.0021 272.427 15.9609C272.427 16.0652 272.422 16.1695 272.404 16.2744H270.024C270.065 16.7503 270.394 17.0177 270.805 17.0177C271.158 17.0177 271.352 16.8432 271.457 16.6283H272.345C272.169 17.2212 271.628 17.6914 270.823 17.6914ZM270.03 15.7283H271.575C271.563 15.3042 271.223 15.0369 270.8 15.0369C270.406 15.0369 270.095 15.2871 270.03 15.7283Z" fill="#F9F2EA"/>
<path d="M274.926 14.369C275.76 14.369 276.412 15.0137 276.412 16.0186C276.412 17.0236 275.76 17.691 274.926 17.691C274.414 17.691 274.049 17.4414 273.85 17.1797V19.1719H273.027V14.4215H273.85V14.886C274.044 14.613 274.42 14.369 274.926 14.369ZM274.708 15.0832C274.267 15.0832 273.85 15.4201 273.85 16.03C273.85 16.6399 274.267 16.9768 274.708 16.9768C275.155 16.9768 275.572 16.6286 275.572 16.0186C275.572 15.4087 275.155 15.0832 274.708 15.0832Z" fill="#F9F2EA"/>
<path d="M277.833 17.6387H277.01V14.421H277.833V14.9203C278.038 14.5891 278.379 14.3742 278.832 14.3742V15.2281H278.614C278.126 15.2281 277.833 15.4139 277.833 16.0358V17.6387Z" fill="#F9F2EA"/>
<path d="M280.831 17.6914C279.891 17.6914 279.18 17.041 279.18 16.0304C279.18 15.0135 279.914 14.3694 280.855 14.3694C281.795 14.3694 282.529 15.0135 282.529 16.0304C282.529 17.041 281.777 17.6914 280.831 17.6914ZM280.831 16.9829C281.266 16.9829 281.683 16.6694 281.683 16.0304C281.683 15.3857 281.278 15.0779 280.843 15.0779C280.408 15.0779 280.014 15.3857 280.014 16.0304C280.014 16.6694 280.39 16.9829 280.831 16.9829Z" fill="#F9F2EA"/>
<path d="M284.415 14.3694C284.844 14.3694 285.255 14.5666 285.479 14.8687V13.3411H286.313V17.6396H285.479V17.163C285.285 17.4594 284.92 17.6914 284.409 17.6914C283.58 17.6914 282.922 17.024 282.922 16.019C282.922 15.0141 283.58 14.3694 284.415 14.3694ZM284.621 15.0836C284.18 15.0836 283.763 15.4091 283.763 16.019C283.763 16.629 284.18 16.9772 284.621 16.9772C285.073 16.9772 285.485 16.6403 285.485 16.0304C285.485 15.4205 285.073 15.0836 284.621 15.0836Z" fill="#F9F2EA"/>
<path d="M290.191 17.6392H289.362V17.2328C289.157 17.5059 288.798 17.6797 288.393 17.6797C287.635 17.6797 287.088 17.1918 287.088 16.3094V14.4215H287.911V16.1931C287.911 16.7101 288.199 16.9889 288.633 16.9889C289.08 16.9889 289.362 16.7101 289.362 16.1931V14.4215H290.191V17.6392Z" fill="#F9F2EA"/>
<path d="M285.603 24.3599H284.774V23.9535C284.569 24.2266 284.21 24.4004 283.805 24.4004C283.047 24.4004 282.5 23.9125 282.5 23.0301V21.1422H283.323V22.9138C283.323 23.4308 283.611 23.7096 284.045 23.7096C284.492 23.7096 284.774 23.4308 284.774 22.9138V21.1422H285.603V24.3599Z" fill="#F9F2EA"/>
<path d="M292.401 14.3694C293.213 14.3694 293.759 14.7872 293.935 15.5077H293.048C292.954 15.2347 292.736 15.0609 292.395 15.0609C291.937 15.0609 291.632 15.4034 291.632 16.0304C291.632 16.658 291.937 16.9943 292.395 16.9943C292.736 16.9943 292.948 16.8438 293.048 16.5531H293.935C293.759 17.2389 293.213 17.6914 292.401 17.6914C291.461 17.6914 290.791 17.041 290.791 16.0304C290.791 15.0198 291.461 14.3694 292.401 14.3694Z" fill="#F9F2EA"/>
<path d="M294.669 15.089H294.281V14.421H294.669V13.6252H295.497V14.421H296.226V15.089H295.497V16.6457C295.497 16.8606 295.586 16.9535 295.844 16.9535H296.226V17.6387H295.709C295.086 17.6387 294.669 17.377 294.669 16.6401V15.089Z" fill="#F9F2EA"/>
<path d="M296.73 13.5614C296.73 13.2941 296.942 13.0849 297.235 13.0849C297.523 13.0849 297.741 13.2941 297.741 13.5614C297.741 13.8288 297.523 14.038 297.235 14.038C296.942 14.038 296.73 13.8288 296.73 13.5614ZM296.819 14.421H297.641V17.6387H296.819V14.421Z" fill="#F9F2EA"/>
<path d="M298.987 14.421L299.809 16.8897L300.633 14.421H301.508L300.304 17.6387H299.305L298.105 14.421H298.987Z" fill="#F9F2EA"/>
<path d="M303.395 17.6914C302.449 17.6914 301.762 17.041 301.762 16.0304C301.762 15.0135 302.432 14.3694 303.395 14.3694C304.336 14.3694 305 15.0021 305 15.9609C305 16.0652 304.994 16.1695 304.976 16.2744H302.597C302.638 16.7503 302.966 17.0177 303.378 17.0177C303.73 17.0177 303.924 16.8432 304.03 16.6283H304.917C304.742 17.2212 304.201 17.6914 303.395 17.6914ZM302.602 15.7283H304.148C304.136 15.3042 303.795 15.0369 303.372 15.0369C302.979 15.0369 302.667 15.2871 302.602 15.7283Z" fill="#F9F2EA"/>
<path d="M224.136 22.6463H222.379V24.3711H221.557V20.3172H222.379V21.9839H224.136V20.3172H224.959V24.3711H224.136V22.6463Z" fill="#F9F2EA"/>
<path d="M227.192 24.4238C226.246 24.4238 225.559 23.7735 225.559 22.7628C225.559 21.7459 226.229 21.1018 227.192 21.1018C228.132 21.1018 228.797 21.7345 228.797 22.6933C228.797 22.7976 228.791 22.9019 228.773 23.0068H226.393C226.434 23.4827 226.763 23.7501 227.174 23.7501C227.527 23.7501 227.721 23.5756 227.827 23.3607H228.714C228.538 23.9536 227.997 24.4238 227.192 24.4238ZM226.399 22.4607H227.945C227.933 22.0366 227.592 21.7693 227.169 21.7693C226.775 21.7693 226.464 22.0196 226.399 22.4607Z" fill="#F9F2EA"/>
<path d="M230.671 21.0999C231.193 21.0999 231.552 21.3439 231.746 21.6106V21.1524H232.575V24.37H231.746V23.8992C231.552 24.1779 231.182 24.4219 230.665 24.4219C229.841 24.4219 229.184 23.7544 229.184 22.7495C229.184 21.7446 229.841 21.0999 230.671 21.0999ZM230.882 21.8141C230.442 21.8141 230.024 22.1396 230.024 22.7495C230.024 23.3594 230.442 23.7077 230.882 23.7077C231.335 23.7077 231.746 23.3708 231.746 22.7609C231.746 22.151 231.335 21.8141 230.882 21.8141Z" fill="#F9F2EA"/>
<path d="M233.379 20.0713H234.202V24.3691H233.379V20.0713Z" fill="#F9F2EA"/>
<path d="M235.142 21.8215H234.754V21.1534H235.142V20.3577H235.97V21.1534H236.699V21.8215H235.97V23.3782C235.97 23.5931 236.058 23.686 236.317 23.686H236.699V24.3711H236.182C235.559 24.3711 235.142 24.1094 235.142 23.3725V21.8215Z" fill="#F9F2EA"/>
<path d="M237.293 20.0732H238.116V21.5547C238.327 21.2811 238.692 21.1073 239.127 21.1073C239.861 21.1073 240.396 21.5952 240.396 22.4838V24.3711H239.573V22.5938C239.573 22.0768 239.285 21.7981 238.85 21.7981C238.404 21.7981 238.116 22.0768 238.116 22.5938V24.3711H237.293V20.0732Z" fill="#F9F2EA"/>
<path d="M241.236 23.4765H242.106L241.377 25.207H240.842L241.236 23.4765Z" fill="#F9F2EA"/>
<path d="M245.614 20.3172C246.601 20.3172 247.095 20.8804 247.095 21.5598C247.095 22.0534 246.818 22.5534 246.161 22.7272L247.142 24.3711H246.19L245.285 22.7916H244.897V24.3711H244.074V20.3172H245.614ZM245.585 20.991H244.897V22.1817H245.585C246.043 22.1817 246.248 21.9434 246.248 21.5775C246.248 21.2172 246.043 20.991 245.585 20.991Z" fill="#F9F2EA"/>
<path d="M247.752 20.2938C247.752 20.0265 247.963 19.8173 248.257 19.8173C248.545 19.8173 248.763 20.0265 248.763 20.2938C248.763 20.5612 248.545 20.7704 248.257 20.7704C247.963 20.7704 247.752 20.5612 247.752 20.2938ZM247.84 21.1534H248.663V24.3711H247.84V21.1534Z" fill="#F9F2EA"/>
<path d="M250.749 21.1017C251.26 21.1017 251.631 21.3337 251.824 21.6124V21.1542H252.653V24.3946C252.653 25.2662 252.112 25.957 251.043 25.957C250.126 25.957 249.485 25.5039 249.403 24.7669H250.22C250.302 25.057 250.608 25.2485 251.019 25.2485C251.472 25.2485 251.824 24.9932 251.824 24.3946V23.8953C251.631 24.1741 251.26 24.4237 250.749 24.4237C249.92 24.4237 249.262 23.7563 249.262 22.7513C249.262 21.7464 249.92 21.1017 250.749 21.1017ZM250.96 21.8159C250.52 21.8159 250.102 22.1414 250.102 22.7513C250.102 23.3613 250.52 23.7095 250.96 23.7095C251.413 23.7095 251.824 23.3726 251.824 22.7627C251.824 22.1528 251.413 21.8159 250.96 21.8159Z" fill="#F9F2EA"/>
<path d="M253.459 20.0732H254.281V21.5547C254.493 21.2811 254.858 21.1073 255.292 21.1073C256.027 21.1073 256.562 21.5952 256.562 22.4838V24.3711H255.739V22.5938C255.739 22.0768 255.451 21.7981 255.016 21.7981C254.569 21.7981 254.281 22.0768 254.281 22.5938V24.3711H253.459V20.0732Z" fill="#F9F2EA"/>
<path d="M257.472 21.8215H257.084V21.1534H257.472V20.3577H258.3V21.1534H259.029V21.8215H258.3V23.3782C258.3 23.5931 258.388 23.686 258.647 23.686H259.029V24.3711H258.511C257.889 24.3711 257.472 24.1094 257.472 23.3725V21.8215Z" fill="#F9F2EA"/>
<path d="M260.87 24.4238C260.052 24.4238 259.483 23.9536 259.447 23.3551H260.276C260.306 23.599 260.535 23.7848 260.864 23.7848C261.187 23.7848 261.363 23.6395 261.363 23.4537C261.363 22.8791 259.524 23.2444 259.524 22.0657C259.524 21.531 260.006 21.1018 260.811 21.1018C261.598 21.1018 262.074 21.5259 262.121 22.1643H261.333C261.311 21.9146 261.111 21.7459 260.787 21.7459C260.482 21.7459 260.323 21.8679 260.323 22.0537C260.323 22.6409 262.127 22.2749 262.151 23.4537C262.151 24.0054 261.663 24.4238 260.87 24.4238Z" fill="#F9F2EA"/>
<path d="M267.315 21.0999C267.838 21.0999 268.197 21.3439 268.391 21.6106V21.1524H269.219V24.37H268.391V23.8992C268.197 24.1779 267.827 24.4219 267.309 24.4219C266.486 24.4219 265.828 23.7544 265.828 22.7495C265.828 21.7446 266.486 21.0999 267.315 21.0999ZM267.526 21.8141C267.086 21.8141 266.669 22.1396 266.669 22.7495C266.669 23.3594 267.086 23.7077 267.526 23.7077C267.979 23.7077 268.391 23.3708 268.391 22.7609C268.391 22.151 267.979 21.8141 267.526 21.8141Z" fill="#F9F2EA"/>
<path d="M272.304 22.5938C272.304 22.0768 272.016 21.7981 271.581 21.7981C271.134 21.7981 270.846 22.0768 270.846 22.5938V24.3711H270.023V21.1534H270.846V21.5541C271.058 21.2811 271.41 21.1066 271.828 21.1066C272.586 21.1066 273.126 21.5952 273.126 22.4838V24.3711H272.304V22.5938Z" fill="#F9F2EA"/>
<path d="M275.19 21.0999C275.619 21.0999 276.03 21.2971 276.253 21.5992V20.0716H277.088V24.37H276.253V23.8935C276.06 24.1893 275.695 24.4219 275.184 24.4219C274.355 24.4219 273.697 23.7544 273.697 22.7495C273.697 21.7446 274.355 21.0999 275.19 21.0999ZM275.396 21.8141C274.955 21.8141 274.538 22.1396 274.538 22.7495C274.538 23.3594 274.955 23.7077 275.396 23.7077C275.849 23.7077 276.26 23.3708 276.26 22.7609C276.26 22.151 275.849 21.8141 275.396 21.8141Z" fill="#F9F2EA"/>
<path d="M280.853 20.3171H281.682V23.1632C281.682 23.9646 281.165 24.4121 280.406 24.4121C279.636 24.4121 279.096 23.9533 279.096 23.1341H279.919C279.924 23.4767 280.083 23.6859 280.394 23.6859C280.7 23.6859 280.853 23.4824 280.853 23.1632V20.3171Z" fill="#F9F2EA"/>
<path d="M287.77 24.4238C286.953 24.4238 286.383 23.9536 286.348 23.3551H287.176C287.206 23.599 287.435 23.7848 287.764 23.7848C288.087 23.7848 288.264 23.6395 288.264 23.4537C288.264 22.8791 286.424 23.2444 286.424 22.0657C286.424 21.531 286.907 21.1018 287.712 21.1018C288.498 21.1018 288.975 21.5259 289.022 22.1643H288.234C288.211 21.9146 288.011 21.7459 287.688 21.7459C287.382 21.7459 287.224 21.8679 287.224 22.0537C287.224 22.6409 289.027 22.2749 289.051 23.4537C289.051 24.0054 288.563 24.4238 287.77 24.4238Z" fill="#F9F2EA"/>
<path d="M289.856 21.8215H289.469V21.1534H289.856V20.3577H290.685V21.1534H291.414V21.8215H290.685V23.3782C290.685 23.5931 290.773 23.686 291.032 23.686H291.414V24.3711H290.897C290.274 24.3711 289.856 24.1094 289.856 23.3725V21.8215Z" fill="#F9F2EA"/>
<path d="M291.92 20.2938C291.92 20.0265 292.131 19.8173 292.425 19.8173C292.713 19.8173 292.931 20.0265 292.931 20.2938C292.931 20.5612 292.713 20.7704 292.425 20.7704C292.131 20.7704 291.92 20.5612 291.92 20.2938ZM292.008 21.1534H292.831V24.3711H292.008V21.1534Z" fill="#F9F2EA"/>
<path d="M295.04 21.0999C295.851 21.0999 296.397 21.5177 296.574 22.2382H295.686C295.592 21.9652 295.375 21.7913 295.034 21.7913C294.576 21.7913 294.27 22.1339 294.27 22.7609C294.27 23.3879 294.576 23.7247 295.034 23.7247C295.375 23.7247 295.587 23.5743 295.686 23.2836H296.574C296.397 23.9693 295.851 24.4219 295.04 24.4219C294.1 24.4219 293.43 23.7715 293.43 22.7609C293.43 21.7503 294.1 21.0999 295.04 21.0999Z" fill="#F9F2EA"/>
<path d="M298.598 24.4238C297.653 24.4238 296.965 23.7735 296.965 22.7628C296.965 21.7459 297.635 21.1018 298.598 21.1018C299.539 21.1018 300.203 21.7345 300.203 22.6933C300.203 22.7976 300.197 22.9019 300.179 23.0068H297.8C297.841 23.4827 298.17 23.7501 298.581 23.7501C298.933 23.7501 299.127 23.5756 299.233 23.3607H300.12C299.945 23.9536 299.404 24.4238 298.598 24.4238ZM297.805 22.4607H299.351C299.339 22.0366 298.998 21.7693 298.575 21.7693C298.182 21.7693 297.87 22.0196 297.805 22.4607Z" fill="#F9F2EA"/>
<path d="M262.99 23.4765H263.859L263.131 25.207H262.596L262.99 23.4765Z" fill="#F9F2EA"/>
<path d="M58.0586 7.02914H70.7538V11.1241H63.2639V14.3791H68.7878V18.2901H63.2639V25.5352H58.0586V7.02914Z" fill="#F9F2EA"/>
<path d="M85.466 11.1506H78.6936V14.1693H84.6692V18.0803H78.6936V21.4143H85.466V25.5352H73.4883V7.02914H85.466V11.1506Z" fill="#F9F2EA"/>
<path d="M88.5742 7.02914H94.8676L99.5692 19.0511L104.164 7.02914H110.432V25.5352H105.226V15.324L101.694 25.5352H97.338L93.7789 15.245V25.5352H88.5742V7.02914Z" fill="#F9F2EA"/>
<path d="M113.936 7.02914H119.14V25.5352H113.936V7.02914Z" fill="#F9F2EA"/>
<path d="M139.989 7.02914V25.5352H134.783L127.851 15.1925V25.5352H122.646V7.02914H127.851L134.783 17.5026V7.02914H139.989Z" fill="#F9F2EA"/>
<path d="M143.494 7.02914H148.699V25.5352H143.494V7.02914Z" fill="#F9F2EA"/>
<path d="M159.271 25.7188C155.101 25.7188 151.861 23.7506 151.648 19.7865H157.2C157.306 21.1776 158.129 21.6503 159.085 21.6503C160.014 21.6503 160.732 21.1776 160.732 20.3117C160.705 17.3455 151.622 18.7366 151.702 12.3057C151.702 8.68285 154.756 6.7406 158.714 6.7406C163.016 6.7406 165.831 8.81431 166.017 12.489H160.36C160.307 11.3342 159.589 10.809 158.633 10.809C157.863 10.7831 157.252 11.2293 157.252 12.1218C157.252 14.8774 166.256 13.9856 166.256 19.9179C166.256 23.1729 163.707 25.7188 159.271 25.7188Z" fill="#F9F2EA"/>
<path d="M168.168 7.02914H183.306V11.1241H178.313V25.5352H173.108V11.1241H168.168V7.02914Z" fill="#F9F2EA"/>
<path d="M194.964 22.5166H188.324L187.316 25.5352H181.844L188.67 7.02977H194.672L201.471 25.5352H195.973L194.964 22.5166ZM191.645 12.5948L189.653 18.5796H193.663L191.645 12.5948Z" fill="#F9F2EA"/>
<path d="M26.6626 5.39434C24.892 4.73134 23.3795 4.74587 22.6341 4.76041C21.4033 4.7838 20.3876 4.99679 19.6765 5.19652L15.1816 0.753933C15.785 0.509967 16.6351 0.23124 17.6825 0.0896635C18.2084 0.0182438 19.5312 -0.11954 21.1705 0.207222C23.0807 0.58834 24.3851 1.39482 25.1165 1.8562C28.1566 3.7738 29.7884 6.52632 30.5274 8.00781C29.8531 7.27655 28.5887 6.1155 26.6626 5.39434Z" fill="#F9F2EA"/>
<path d="M23.198 11.8308C25.735 11.8308 27.7981 13.8704 27.7981 16.3777C27.7981 18.8844 25.735 20.9239 23.198 20.9239C20.6616 20.9239 18.5979 18.8844 18.5979 16.3777C18.5979 13.8704 20.6616 11.8308 23.198 11.8308ZM23.198 6.97743C17.9457 6.97743 13.6875 11.1862 13.6875 16.3777C13.6875 21.5686 17.9457 25.7773 23.198 25.7773C28.4509 25.7773 32.7091 21.5686 32.7091 16.3777C32.7091 11.1862 28.4509 6.97743 23.198 6.97743Z" fill="#F9F2EA"/>
<path d="M42.4195 25.7773C38.2387 25.7773 34.9905 23.8035 34.7773 19.8299H40.3424C40.449 21.2242 41.2744 21.6982 42.233 21.6982C43.1649 21.6982 43.8843 21.2242 43.8843 20.3557C43.8571 17.382 34.7507 18.7769 34.8306 12.3289C34.8306 8.6972 37.8929 6.7499 41.8606 6.7499C46.1739 6.7499 48.9964 8.82866 49.183 12.5134H43.5113C43.458 11.3555 42.7386 10.8291 41.78 10.8291C41.0079 10.8025 40.3957 11.25 40.3957 12.145C40.3957 14.9082 49.4228 14.0133 49.4228 19.9613C49.4228 23.2246 46.8661 25.7773 42.4195 25.7773Z" fill="#F9F2EA"/>
<path d="M0 6.9772H12.7282V11.0829H5.21931V14.3461H10.7577V18.2673H5.21931V25.5312H0V6.9772Z" fill="#F9F2EA"/>
</svg>
