<svg width="264" height="383" viewBox="0 0 264 383" fill="none" xmlns="http://www.w3.org/2000/svg">
<g clip-path="url(#clip0_26_2213)">
<path d="M121.816 105.368L32.2695 14.6659C179.528 -33.4584 270.613 42.4057 339.631 161.246C270.906 97.9606 223.75 84.173 121.816 105.368Z" fill="white"/>
<path fill-rule="evenodd" clip-rule="evenodd" d="M192 520.001C298.039 520.001 384 433.708 384 327.26C384 220.813 298.039 134.52 192 134.52C85.9613 134.52 0 220.813 0 327.26C0 433.708 85.9613 520.001 192 520.001ZM192.003 422.821C244.577 422.821 287.196 380.037 287.196 327.26C287.196 274.484 244.577 231.7 192.003 231.7C139.429 231.7 96.8096 274.484 96.8096 327.26C96.8096 380.037 139.429 422.821 192.003 422.821Z" fill="white"/>
</g>
<defs>
<clipPath id="clip0_26_2213">
<rect width="264" height="383" fill="white"/>
</clipPath>
</defs>
</svg>
