<svg width="264" height="383" viewBox="0 0 264 383" fill="none" xmlns="http://www.w3.org/2000/svg">
<g clip-path="url(#clip0_159_6202)">
<path d="M121.816 105.368L32.2698 14.6659C179.528 -33.4584 270.613 42.4057 339.631 161.246C270.906 97.9606 223.75 84.173 121.816 105.368Z" fill="#F06043"/>
<path fill-rule="evenodd" clip-rule="evenodd" d="M192 520.001C298.039 520.001 384 433.708 384 327.26C384 220.812 298.039 134.519 192 134.519C85.9613 134.519 0 220.812 0 327.26C0 433.708 85.9613 520.001 192 520.001ZM192.003 422.82C244.577 422.82 287.196 380.036 287.196 327.26C287.196 274.483 244.577 231.699 192.003 231.699C139.429 231.699 96.8096 274.483 96.8096 327.26C96.8096 380.036 139.429 422.82 192.003 422.82Z" fill="white"/>
</g>
<defs>
<clipPath id="clip0_159_6202">
<rect width="264" height="383" fill="white"/>
</clipPath>
</defs>
</svg>
