<svg width="305" height="26" viewBox="0 0 305 26" fill="none" xmlns="http://www.w3.org/2000/svg">
<path d="M211.194 25.9995H211.781V6.30336H211.194V25.9995Z" fill="#F9F2EA"/>
<path d="M221.557 6.85237H222.379V10.9062H221.557V6.85237Z" fill="#F9F2EA"/>
<path d="M225.47 9.12994C225.47 8.61293 225.182 8.33421 224.746 8.33421C224.3 8.33421 224.012 8.61293 224.012 9.12994V10.9072H223.189V7.68953H224.012V8.09024C224.224 7.8172 224.576 7.64276 224.994 7.64276C225.751 7.64276 226.292 8.13132 226.292 9.01997V10.9072H225.47V9.12994Z" fill="#F9F2EA"/>
<path d="M227.204 8.35759H226.816V7.68953H227.204V6.8938H228.033V7.68953H228.762V8.35759H228.033V9.9143C228.033 10.1292 228.121 10.2221 228.38 10.2221H228.762V10.9072H228.244C227.621 10.9072 227.204 10.6456 227.204 9.90861V8.35759Z" fill="#F9F2EA"/>
<path d="M230.778 10.96C229.832 10.96 229.145 10.3096 229.145 9.29897C229.145 8.28202 229.814 7.63798 230.778 7.63798C231.718 7.63798 232.383 8.27065 232.383 9.22945C232.383 9.33373 232.377 9.43802 232.359 9.54294H229.979C230.02 10.0189 230.349 10.2862 230.761 10.2862C231.113 10.2862 231.307 10.1118 231.413 9.89688H232.3C232.124 10.4897 231.583 10.96 230.778 10.96ZM229.985 8.99686H231.531C231.518 8.57276 231.178 8.30541 230.755 8.30541C230.361 8.30541 230.05 8.55569 229.985 8.99686Z" fill="#F9F2EA"/>
<path d="M233.801 10.9072H232.979V7.68953H233.801V8.18884C234.007 7.85765 234.348 7.64276 234.801 7.64276V8.49664H234.583C234.095 8.49664 233.801 8.68246 233.801 9.30438V10.9072Z" fill="#F9F2EA"/>
<path d="M237.634 9.12994C237.634 8.61293 237.346 8.33421 236.911 8.33421C236.464 8.33421 236.176 8.61293 236.176 9.12994V10.9072H235.354V7.68953H236.176V8.09024C236.388 7.8172 236.74 7.64276 237.158 7.64276C237.916 7.64276 238.456 8.13132 238.456 9.01997V10.9072H237.634V9.12994Z" fill="#F9F2EA"/>
<path d="M240.514 7.63603C241.037 7.63603 241.396 7.87999 241.589 8.14671V7.68848H242.418V10.9062H241.589V10.4353C241.396 10.714 241.025 10.958 240.508 10.958C239.685 10.958 239.027 10.2906 239.027 9.28564C239.027 8.2807 239.685 7.63603 240.514 7.63603ZM240.726 8.35023C240.285 8.35023 239.867 8.67573 239.867 9.28564C239.867 9.89555 240.285 10.2438 240.726 10.2438C241.178 10.2438 241.589 9.90693 241.589 9.29702C241.589 8.6871 241.178 8.35023 240.726 8.35023Z" fill="#F9F2EA"/>
<path d="M243.352 8.35759H242.965V7.68953H243.352V6.8938H244.181V7.68953H244.91V8.35759H244.181V9.9143C244.181 10.1292 244.269 10.2221 244.528 10.2221H244.91V10.9072H244.392C243.77 10.9072 243.352 10.6456 243.352 9.90861V8.35759Z" fill="#F9F2EA"/>
<path d="M245.414 6.82996C245.414 6.56261 245.625 6.3534 245.919 6.3534C246.207 6.3534 246.425 6.56261 246.425 6.82996C246.425 7.09731 246.207 7.30652 245.919 7.30652C245.625 7.30652 245.414 7.09731 245.414 6.82996ZM245.502 7.68953H246.325V10.9072H245.502V7.68953Z" fill="#F9F2EA"/>
<path d="M248.581 10.96C247.641 10.96 246.93 10.3096 246.93 9.29897C246.93 8.28202 247.664 7.63798 248.605 7.63798C249.545 7.63798 250.279 8.28202 250.279 9.29897C250.279 10.3096 249.527 10.96 248.581 10.96ZM248.581 10.2514C249.016 10.2514 249.433 9.93796 249.433 9.29897C249.433 8.65429 249.028 8.34649 248.593 8.34649C248.158 8.34649 247.764 8.65429 247.764 9.29897C247.764 9.93796 248.14 10.2514 248.581 10.2514Z" fill="#F9F2EA"/>
<path d="M253.165 9.12994C253.165 8.61293 252.877 8.33421 252.442 8.33421C251.996 8.33421 251.708 8.61293 251.708 9.12994V10.9072H250.885V7.68953H251.708V8.09024C251.919 7.8172 252.272 7.64276 252.689 7.64276C253.447 7.64276 253.988 8.13132 253.988 9.01997V10.9072H253.165V9.12994Z" fill="#F9F2EA"/>
<path d="M256.044 7.63603C256.567 7.63603 256.926 7.87999 257.119 8.14671V7.68848H257.948V10.9062H257.119V10.4353C256.926 10.714 256.555 10.958 256.038 10.958C255.215 10.958 254.557 10.2906 254.557 9.28564C254.557 8.2807 255.215 7.63603 256.044 7.63603ZM256.255 8.35023C255.815 8.35023 255.397 8.67573 255.397 9.28564C255.397 9.89555 255.815 10.2438 256.255 10.2438C256.708 10.2438 257.119 9.90693 257.119 9.29702C257.119 8.6871 256.708 8.35023 256.255 8.35023Z" fill="#F9F2EA"/>
<path d="M258.754 6.6084H259.577V10.9062H258.754V6.6084Z" fill="#F9F2EA"/>
<path d="M264.299 10.1349H262.666L262.395 10.9072H261.531L263.006 6.84766H263.965L265.439 10.9072H264.57L264.299 10.1349ZM263.483 7.78813L262.889 9.48451H264.076L263.483 7.78813Z" fill="#F9F2EA"/>
<path d="M265.992 6.6084H266.814V10.9062H265.992V6.6084Z" fill="#F9F2EA"/>
<path d="M267.625 6.6084H268.448V10.9062H267.625V6.6084Z" fill="#F9F2EA"/>
<path d="M269.17 6.82996C269.17 6.56261 269.381 6.3534 269.675 6.3534C269.963 6.3534 270.181 6.56261 270.181 6.82996C270.181 7.09731 269.963 7.30652 269.675 7.30652C269.381 7.30652 269.17 7.09731 269.17 6.82996ZM269.258 7.68953H270.081V10.9072H269.258V7.68953Z" fill="#F9F2EA"/>
<path d="M272.169 7.63603C272.691 7.63603 273.051 7.87999 273.244 8.14671V7.68848H274.073V10.9062H273.244V10.4353C273.051 10.714 272.68 10.958 272.163 10.958C271.34 10.958 270.682 10.2906 270.682 9.28564C270.682 8.2807 271.34 7.63603 272.169 7.63603ZM272.38 8.35023C271.94 8.35023 271.522 8.67573 271.522 9.28564C271.522 9.89555 271.94 10.2438 272.38 10.2438C272.833 10.2438 273.244 9.90693 273.244 9.29702C273.244 8.6871 272.833 8.35023 272.38 8.35023Z" fill="#F9F2EA"/>
<path d="M277.157 9.12994C277.157 8.61293 276.868 8.33421 276.434 8.33421C275.987 8.33421 275.699 8.61293 275.699 9.12994V10.9072H274.877V7.68953H275.699V8.09024C275.911 7.8172 276.264 7.64276 276.681 7.64276C277.439 7.64276 277.979 8.13132 277.979 9.01997V10.9072H277.157V9.12994Z" fill="#F9F2EA"/>
<path d="M280.161 7.63603C280.972 7.63603 281.519 8.0538 281.694 8.77432H280.807C280.713 8.50128 280.496 8.32747 280.155 8.32747C279.697 8.32747 279.391 8.67004 279.391 9.29702C279.391 9.924 279.697 10.2609 280.155 10.2609C280.496 10.2609 280.707 10.1104 280.807 9.81971H281.694C281.519 10.5055 280.972 10.958 280.161 10.958C279.221 10.958 278.551 10.3076 278.551 9.29702C278.551 8.28639 279.221 7.63603 280.161 7.63603Z" fill="#F9F2EA"/>
<path d="M283.721 10.96C282.776 10.96 282.088 10.3096 282.088 9.29897C282.088 8.28202 282.757 7.63798 283.721 7.63798C284.662 7.63798 285.325 8.27065 285.325 9.22945C285.325 9.33373 285.32 9.43802 285.302 9.54294H282.922C282.963 10.0189 283.293 10.2862 283.704 10.2862C284.056 10.2862 284.25 10.1118 284.356 9.89688H285.243C285.067 10.4897 284.527 10.96 283.721 10.96ZM282.928 8.99686H284.474C284.462 8.57276 284.121 8.30541 283.698 8.30541C283.304 8.30541 282.993 8.55569 282.928 8.99686Z" fill="#F9F2EA"/>
<path d="M221.644 15.089H221.273V14.421H221.644V14.2585C221.644 13.4685 222.096 13.1026 223.013 13.1259V13.8111C222.613 13.7997 222.478 13.9274 222.478 14.2876V14.421H223.048V15.089H222.478V17.6387H221.644V15.089Z" fill="#F9F2EA"/>
<path d="M225.03 17.6904C224.09 17.6904 223.379 17.0401 223.379 16.0294C223.379 15.0125 224.114 14.3684 225.054 14.3684C225.994 14.3684 226.729 15.0125 226.729 16.0294C226.729 17.0401 225.976 17.6904 225.03 17.6904ZM225.03 16.9819C225.465 16.9819 225.882 16.6684 225.882 16.0294C225.882 15.3848 225.477 15.077 225.042 15.077C224.607 15.077 224.213 15.3848 224.213 16.0294C224.213 16.6684 224.589 16.9819 225.03 16.9819Z" fill="#F9F2EA"/>
<path d="M228.156 17.6387H227.334V14.421H228.156V14.9203C228.362 14.5891 228.703 14.3742 229.155 14.3742V15.2281H228.938C228.45 15.2281 228.156 15.4139 228.156 16.0358V17.6387Z" fill="#F9F2EA"/>
<path d="M232.523 17.6787C231.67 17.6787 231.012 17.2375 231 16.4709H231.882C231.905 16.7958 232.123 17.0106 232.505 17.0106C232.892 17.0106 233.121 16.8071 233.121 16.517C233.121 15.6398 231.006 16.1688 231.012 14.6993C231.012 13.9674 231.612 13.5256 232.458 13.5256C233.298 13.5256 233.874 13.9497 233.927 14.6816H233.022C233.004 14.4142 232.787 14.205 232.434 14.1994C232.111 14.188 231.87 14.3447 231.87 14.6759C231.87 15.4893 233.974 15.0362 233.974 16.4652C233.974 17.1036 233.456 17.6787 232.523 17.6787Z" fill="#F9F2EA"/>
<path d="M236.107 17.6904C235.161 17.6904 234.473 17.0401 234.473 16.0294C234.473 15.0125 235.143 14.3684 236.107 14.3684C237.047 14.3684 237.711 15.0011 237.711 15.9599C237.711 16.0642 237.706 16.1685 237.688 16.2734H235.308C235.349 16.7493 235.678 17.0167 236.089 17.0167C236.442 17.0167 236.635 16.8422 236.741 16.6273H237.629C237.452 17.2202 236.912 17.6904 236.107 17.6904ZM235.314 15.7273H236.859C236.847 15.3032 236.507 15.0359 236.083 15.0359C235.689 15.0359 235.379 15.2862 235.314 15.7273Z" fill="#F9F2EA"/>
<path d="M239.438 16.6401L238.844 17.6387H237.963L239.026 16.0245L237.951 14.4216H238.879L239.544 15.4145L240.143 14.4216H241.024L239.955 16.0245L241.036 17.6387H240.108L239.438 16.6401Z" fill="#F9F2EA"/>
<path d="M244.556 17.6383H243.728V17.2319C243.522 17.5049 243.164 17.6787 242.758 17.6787C242 17.6787 241.453 17.1908 241.453 16.3085V14.4206H242.276V16.1922C242.276 16.7092 242.564 16.9879 242.999 16.9879C243.445 16.9879 243.728 16.7092 243.728 16.1922V14.4206H244.556V17.6383Z" fill="#F9F2EA"/>
<path d="M246.643 14.3684C247.166 14.3684 247.525 14.6124 247.718 14.8791V14.4209H248.547V17.6386H247.718V17.1677C247.525 17.4471 247.154 17.6904 246.637 17.6904C245.814 17.6904 245.156 17.023 245.156 16.0181C245.156 15.0131 245.814 14.3684 246.643 14.3684ZM246.855 15.0826C246.414 15.0826 245.996 15.4081 245.996 16.0181C245.996 16.628 246.414 16.9762 246.855 16.9762C247.307 16.9762 247.718 16.6394 247.718 16.0294C247.718 15.4195 247.307 15.0826 246.855 15.0826Z" fill="#F9F2EA"/>
<path d="M249.35 13.3408H250.172V17.6387H249.35V13.3408Z" fill="#F9F2EA"/>
<path d="M253.657 14.3684C254.18 14.3684 254.539 14.6124 254.732 14.8791V14.4209H255.561V17.6386H254.732V17.1677C254.539 17.4471 254.168 17.6904 253.651 17.6904C252.828 17.6904 252.17 17.023 252.17 16.0181C252.17 15.0131 252.828 14.3684 253.657 14.3684ZM253.868 15.0826C253.428 15.0826 253.011 15.4081 253.011 16.0181C253.011 16.628 253.428 16.9762 253.868 16.9762C254.321 16.9762 254.732 16.6394 254.732 16.0294C254.732 15.4195 254.321 15.0826 253.868 15.0826Z" fill="#F9F2EA"/>
<path d="M258.647 15.8614C258.647 15.3444 258.359 15.0657 257.925 15.0657C257.478 15.0657 257.19 15.3444 257.19 15.8614V17.6387H256.367V14.421H257.19V14.8217C257.401 14.5486 257.754 14.3742 258.171 14.3742C258.93 14.3742 259.47 14.8621 259.47 15.7514V17.6387H258.647V15.8614Z" fill="#F9F2EA"/>
<path d="M261.534 14.3684C261.963 14.3684 262.374 14.5656 262.598 14.8678V13.3401H263.432V17.6386H262.598V17.162C262.404 17.4585 262.039 17.6904 261.528 17.6904C260.699 17.6904 260.041 17.023 260.041 16.0181C260.041 15.0131 260.699 14.3684 261.534 14.3684ZM261.739 15.0826C261.298 15.0826 260.882 15.4081 260.882 16.0181C260.882 16.628 261.298 16.9762 261.739 16.9762C262.192 16.9762 262.603 16.6394 262.603 16.0294C262.603 15.4195 262.192 15.0826 261.739 15.0826Z" fill="#F9F2EA"/>
<path d="M267.173 13.5848C268.16 13.5848 268.653 14.1479 268.653 14.8274C268.653 15.321 268.377 15.8209 267.719 15.9947L268.7 17.6387H267.749L266.843 16.0592H266.456V17.6387H265.633V13.5848H267.173ZM267.143 14.2585H266.456V15.4493H267.143C267.601 15.4493 267.807 15.211 267.807 14.8451C267.807 14.4848 267.601 14.2585 267.143 14.2585Z" fill="#F9F2EA"/>
<path d="M270.823 17.6904C269.877 17.6904 269.189 17.0401 269.189 16.0294C269.189 15.0125 269.859 14.3684 270.823 14.3684C271.763 14.3684 272.427 15.0011 272.427 15.9599C272.427 16.0642 272.422 16.1685 272.404 16.2734H270.024C270.065 16.7493 270.394 17.0167 270.805 17.0167C271.158 17.0167 271.352 16.8422 271.457 16.6273H272.345C272.169 17.2202 271.628 17.6904 270.823 17.6904ZM270.03 15.7273H271.575C271.563 15.3032 271.223 15.0359 270.8 15.0359C270.406 15.0359 270.095 15.2862 270.03 15.7273Z" fill="#F9F2EA"/>
<path d="M274.926 14.3681C275.76 14.3681 276.412 15.0127 276.412 16.0177C276.412 17.0226 275.76 17.69 274.926 17.69C274.414 17.69 274.049 17.4404 273.85 17.1787V19.1709H273.027V14.4205H273.85V14.8851C274.044 14.612 274.42 14.3681 274.926 14.3681ZM274.708 15.0823C274.267 15.0823 273.85 15.4191 273.85 16.029C273.85 16.639 274.267 16.9758 274.708 16.9758C275.155 16.9758 275.572 16.6276 275.572 16.0177C275.572 15.4078 275.155 15.0823 274.708 15.0823Z" fill="#F9F2EA"/>
<path d="M277.833 17.6387H277.01V14.421H277.833V14.9203C278.038 14.5891 278.379 14.3742 278.832 14.3742V15.2281H278.614C278.126 15.2281 277.833 15.4139 277.833 16.0358V17.6387Z" fill="#F9F2EA"/>
<path d="M280.831 17.6904C279.891 17.6904 279.18 17.0401 279.18 16.0294C279.18 15.0125 279.914 14.3684 280.855 14.3684C281.795 14.3684 282.529 15.0125 282.529 16.0294C282.529 17.0401 281.777 17.6904 280.831 17.6904ZM280.831 16.9819C281.266 16.9819 281.683 16.6684 281.683 16.0294C281.683 15.3848 281.278 15.077 280.843 15.077C280.408 15.077 280.014 15.3848 280.014 16.0294C280.014 16.6684 280.39 16.9819 280.831 16.9819Z" fill="#F9F2EA"/>
<path d="M284.415 14.3684C284.844 14.3684 285.255 14.5656 285.479 14.8678V13.3401H286.313V17.6386H285.479V17.162C285.285 17.4585 284.92 17.6904 284.409 17.6904C283.58 17.6904 282.922 17.023 282.922 16.0181C282.922 15.0131 283.58 14.3684 284.415 14.3684ZM284.621 15.0826C284.18 15.0826 283.763 15.4081 283.763 16.0181C283.763 16.628 284.18 16.9762 284.621 16.9762C285.073 16.9762 285.485 16.6394 285.485 16.0294C285.485 15.4195 285.073 15.0826 284.621 15.0826Z" fill="#F9F2EA"/>
<path d="M290.191 17.6383H289.362V17.2319C289.157 17.5049 288.798 17.6787 288.393 17.6787C287.635 17.6787 287.088 17.1908 287.088 16.3085V14.4206H287.911V16.1922C287.911 16.7092 288.199 16.9879 288.633 16.9879C289.08 16.9879 289.362 16.7092 289.362 16.1922V14.4206H290.191V17.6383Z" fill="#F9F2EA"/>
<path d="M285.603 24.3595H284.774V23.9531C284.569 24.2261 284.21 24.3999 283.805 24.3999C283.047 24.3999 282.5 23.912 282.5 23.0296V21.1418H283.323V22.9134C283.323 23.4304 283.611 23.7091 284.045 23.7091C284.492 23.7091 284.774 23.4304 284.774 22.9134V21.1418H285.603V24.3595Z" fill="#F9F2EA"/>
<path d="M292.401 14.3684C293.213 14.3684 293.759 14.7862 293.935 15.5067H293.048C292.954 15.2337 292.736 15.0599 292.395 15.0599C291.937 15.0599 291.632 15.4025 291.632 16.0294C291.632 16.6571 291.937 16.9933 292.395 16.9933C292.736 16.9933 292.948 16.8429 293.048 16.5521H293.935C293.759 17.2379 293.213 17.6904 292.401 17.6904C291.461 17.6904 290.791 17.0401 290.791 16.0294C290.791 15.0188 291.461 14.3684 292.401 14.3684Z" fill="#F9F2EA"/>
<path d="M294.669 15.089H294.281V14.421H294.669V13.6252H295.497V14.421H296.226V15.089H295.497V16.6457C295.497 16.8606 295.586 16.9535 295.844 16.9535H296.226V17.6387H295.709C295.086 17.6387 294.669 17.377 294.669 16.6401V15.089Z" fill="#F9F2EA"/>
<path d="M296.73 13.5614C296.73 13.2941 296.942 13.0849 297.235 13.0849C297.523 13.0849 297.741 13.2941 297.741 13.5614C297.741 13.8288 297.523 14.038 297.235 14.038C296.942 14.038 296.73 13.8288 296.73 13.5614ZM296.819 14.421H297.641V17.6387H296.819V14.421Z" fill="#F9F2EA"/>
<path d="M298.987 14.421L299.809 16.8897L300.633 14.421H301.508L300.304 17.6387H299.305L298.105 14.421H298.987Z" fill="#F9F2EA"/>
<path d="M303.395 17.6904C302.449 17.6904 301.762 17.0401 301.762 16.0294C301.762 15.0125 302.432 14.3684 303.395 14.3684C304.336 14.3684 305 15.0011 305 15.9599C305 16.0642 304.994 16.1685 304.976 16.2734H302.597C302.638 16.7493 302.966 17.0167 303.378 17.0167C303.73 17.0167 303.924 16.8422 304.03 16.6273H304.917C304.742 17.2202 304.201 17.6904 303.395 17.6904ZM302.602 15.7273H304.148C304.136 15.3032 303.795 15.0359 303.372 15.0359C302.979 15.0359 302.667 15.2862 302.602 15.7273Z" fill="#F9F2EA"/>
<path d="M224.136 22.6463H222.379V24.3711H221.557V20.3172H222.379V21.9839H224.136V20.3172H224.959V24.3711H224.136V22.6463Z" fill="#F9F2EA"/>
<path d="M227.192 24.4229C226.246 24.4229 225.559 23.7725 225.559 22.7619C225.559 21.7449 226.229 21.1009 227.192 21.1009C228.132 21.1009 228.797 21.7335 228.797 22.6923C228.797 22.7966 228.791 22.9009 228.773 23.0058H226.393C226.434 23.4817 226.763 23.7491 227.174 23.7491C227.527 23.7491 227.721 23.5747 227.827 23.3598H228.714C228.538 23.9526 227.997 24.4229 227.192 24.4229ZM226.399 22.4597H227.945C227.933 22.0357 227.592 21.7683 227.169 21.7683C226.775 21.7683 226.464 22.0186 226.399 22.4597Z" fill="#F9F2EA"/>
<path d="M230.671 21.0999C231.193 21.0999 231.552 21.3439 231.746 21.6106V21.1524H232.575V24.37H231.746V23.8992C231.552 24.1779 231.182 24.4219 230.665 24.4219C229.841 24.4219 229.184 23.7544 229.184 22.7495C229.184 21.7446 229.841 21.0999 230.671 21.0999ZM230.882 21.8141C230.442 21.8141 230.024 22.1396 230.024 22.7495C230.024 23.3594 230.442 23.7077 230.882 23.7077C231.335 23.7077 231.746 23.3708 231.746 22.7609C231.746 22.151 231.335 21.8141 230.882 21.8141Z" fill="#F9F2EA"/>
<path d="M233.379 20.0713H234.202V24.3691H233.379V20.0713Z" fill="#F9F2EA"/>
<path d="M235.142 21.8215H234.754V21.1534H235.142V20.3577H235.97V21.1534H236.699V21.8215H235.97V23.3782C235.97 23.5931 236.058 23.686 236.317 23.686H236.699V24.3711H236.182C235.559 24.3711 235.142 24.1094 235.142 23.3725V21.8215Z" fill="#F9F2EA"/>
<path d="M237.293 20.0732H238.116V21.5547C238.327 21.2811 238.692 21.1073 239.127 21.1073C239.861 21.1073 240.396 21.5952 240.396 22.4838V24.3711H239.573V22.5938C239.573 22.0768 239.285 21.7981 238.85 21.7981C238.404 21.7981 238.116 22.0768 238.116 22.5938V24.3711H237.293V20.0732Z" fill="#F9F2EA"/>
<path d="M241.236 23.4765H242.106L241.377 25.207H240.842L241.236 23.4765Z" fill="#F9F2EA"/>
<path d="M245.614 20.3172C246.601 20.3172 247.095 20.8804 247.095 21.5598C247.095 22.0534 246.818 22.5534 246.161 22.7272L247.142 24.3711H246.19L245.285 22.7916H244.897V24.3711H244.074V20.3172H245.614ZM245.585 20.991H244.897V22.1817H245.585C246.043 22.1817 246.248 21.9434 246.248 21.5775C246.248 21.2172 246.043 20.991 245.585 20.991Z" fill="#F9F2EA"/>
<path d="M247.752 20.2938C247.752 20.0265 247.963 19.8173 248.257 19.8173C248.545 19.8173 248.763 20.0265 248.763 20.2938C248.763 20.5612 248.545 20.7704 248.257 20.7704C247.963 20.7704 247.752 20.5612 247.752 20.2938ZM247.84 21.1534H248.663V24.3711H247.84V21.1534Z" fill="#F9F2EA"/>
<path d="M250.749 21.1008C251.26 21.1008 251.631 21.3327 251.824 21.6114V21.1532H252.653V24.3937C252.653 25.2652 252.112 25.9561 251.043 25.9561C250.126 25.9561 249.485 25.5029 249.403 24.7659H250.22C250.302 25.056 250.608 25.2475 251.019 25.2475C251.472 25.2475 251.824 24.9922 251.824 24.3937V23.8944C251.631 24.1731 251.26 24.4227 250.749 24.4227C249.92 24.4227 249.262 23.7553 249.262 22.7504C249.262 21.7454 249.92 21.1008 250.749 21.1008ZM250.96 21.815C250.52 21.815 250.102 22.1405 250.102 22.7504C250.102 23.3603 250.52 23.7085 250.96 23.7085C251.413 23.7085 251.824 23.3717 251.824 22.7617C251.824 22.1518 251.413 21.815 250.96 21.815Z" fill="#F9F2EA"/>
<path d="M253.459 20.0732H254.281V21.5547C254.493 21.2811 254.858 21.1073 255.292 21.1073C256.027 21.1073 256.562 21.5952 256.562 22.4838V24.3711H255.739V22.5938C255.739 22.0768 255.451 21.7981 255.016 21.7981C254.569 21.7981 254.281 22.0768 254.281 22.5938V24.3711H253.459V20.0732Z" fill="#F9F2EA"/>
<path d="M257.472 21.8215H257.084V21.1534H257.472V20.3577H258.3V21.1534H259.029V21.8215H258.3V23.3782C258.3 23.5931 258.388 23.686 258.647 23.686H259.029V24.3711H258.511C257.889 24.3711 257.472 24.1094 257.472 23.3725V21.8215Z" fill="#F9F2EA"/>
<path d="M260.87 24.4229C260.052 24.4229 259.483 23.9526 259.447 23.3541H260.276C260.306 23.598 260.535 23.7839 260.864 23.7839C261.187 23.7839 261.363 23.6385 261.363 23.4527C261.363 22.8782 259.524 23.2435 259.524 22.0647C259.524 21.53 260.006 21.1009 260.811 21.1009C261.598 21.1009 262.074 21.525 262.121 22.1633H261.333C261.311 21.9137 261.111 21.7449 260.787 21.7449C260.482 21.7449 260.323 21.8669 260.323 22.0527C260.323 22.6399 262.127 22.2739 262.151 23.4527C262.151 24.0044 261.663 24.4229 260.87 24.4229Z" fill="#F9F2EA"/>
<path d="M267.315 21.0999C267.838 21.0999 268.197 21.3439 268.391 21.6106V21.1524H269.219V24.37H268.391V23.8992C268.197 24.1779 267.827 24.4219 267.309 24.4219C266.486 24.4219 265.828 23.7544 265.828 22.7495C265.828 21.7446 266.486 21.0999 267.315 21.0999ZM267.526 21.8141C267.086 21.8141 266.669 22.1396 266.669 22.7495C266.669 23.3594 267.086 23.7077 267.526 23.7077C267.979 23.7077 268.391 23.3708 268.391 22.7609C268.391 22.151 267.979 21.8141 267.526 21.8141Z" fill="#F9F2EA"/>
<path d="M272.304 22.5938C272.304 22.0768 272.016 21.7981 271.581 21.7981C271.134 21.7981 270.846 22.0768 270.846 22.5938V24.3711H270.023V21.1534H270.846V21.5541C271.058 21.2811 271.41 21.1066 271.828 21.1066C272.586 21.1066 273.126 21.5952 273.126 22.4838V24.3711H272.304V22.5938Z" fill="#F9F2EA"/>
<path d="M275.19 21.0999C275.619 21.0999 276.03 21.2971 276.253 21.5992V20.0716H277.088V24.37H276.253V23.8935C276.06 24.1893 275.695 24.4219 275.184 24.4219C274.355 24.4219 273.697 23.7544 273.697 22.7495C273.697 21.7446 274.355 21.0999 275.19 21.0999ZM275.396 21.8141C274.955 21.8141 274.538 22.1396 274.538 22.7495C274.538 23.3594 274.955 23.7077 275.396 23.7077C275.849 23.7077 276.26 23.3708 276.26 22.7609C276.26 22.151 275.849 21.8141 275.396 21.8141Z" fill="#F9F2EA"/>
<path d="M280.853 20.3162H281.682V23.1622C281.682 23.9637 281.165 24.4111 280.406 24.4111C279.636 24.4111 279.096 23.9523 279.096 23.1332H279.919C279.924 23.4757 280.083 23.6849 280.394 23.6849C280.7 23.6849 280.853 23.4814 280.853 23.1622V20.3162Z" fill="#F9F2EA"/>
<path d="M287.77 24.4229C286.953 24.4229 286.383 23.9526 286.348 23.3541H287.176C287.206 23.598 287.435 23.7839 287.764 23.7839C288.087 23.7839 288.264 23.6385 288.264 23.4527C288.264 22.8782 286.424 23.2435 286.424 22.0647C286.424 21.53 286.907 21.1009 287.712 21.1009C288.498 21.1009 288.975 21.525 289.022 22.1633H288.234C288.211 21.9137 288.011 21.7449 287.688 21.7449C287.382 21.7449 287.224 21.8669 287.224 22.0527C287.224 22.6399 289.027 22.2739 289.051 23.4527C289.051 24.0044 288.563 24.4229 287.77 24.4229Z" fill="#F9F2EA"/>
<path d="M289.856 21.8215H289.469V21.1534H289.856V20.3577H290.685V21.1534H291.414V21.8215H290.685V23.3782C290.685 23.5931 290.773 23.686 291.032 23.686H291.414V24.3711H290.897C290.274 24.3711 289.856 24.1094 289.856 23.3725V21.8215Z" fill="#F9F2EA"/>
<path d="M291.92 20.2938C291.92 20.0265 292.131 19.8173 292.425 19.8173C292.713 19.8173 292.931 20.0265 292.931 20.2938C292.931 20.5612 292.713 20.7704 292.425 20.7704C292.131 20.7704 291.92 20.5612 291.92 20.2938ZM292.008 21.1534H292.831V24.3711H292.008V21.1534Z" fill="#F9F2EA"/>
<path d="M295.04 21.0999C295.851 21.0999 296.397 21.5177 296.574 22.2382H295.686C295.592 21.9652 295.375 21.7913 295.034 21.7913C294.576 21.7913 294.27 22.1339 294.27 22.7609C294.27 23.3879 294.576 23.7247 295.034 23.7247C295.375 23.7247 295.587 23.5743 295.686 23.2836H296.574C296.397 23.9693 295.851 24.4219 295.04 24.4219C294.1 24.4219 293.43 23.7715 293.43 22.7609C293.43 21.7503 294.1 21.0999 295.04 21.0999Z" fill="#F9F2EA"/>
<path d="M298.598 24.4229C297.653 24.4229 296.965 23.7725 296.965 22.7619C296.965 21.7449 297.635 21.1009 298.598 21.1009C299.539 21.1009 300.203 21.7335 300.203 22.6923C300.203 22.7966 300.197 22.9009 300.179 23.0058H297.8C297.841 23.4817 298.17 23.7491 298.581 23.7491C298.933 23.7491 299.127 23.5747 299.233 23.3598H300.12C299.945 23.9526 299.404 24.4229 298.598 24.4229ZM297.805 22.4597H299.351C299.339 22.0357 298.998 21.7683 298.575 21.7683C298.182 21.7683 297.87 22.0186 297.805 22.4597Z" fill="#F9F2EA"/>
<path d="M262.99 23.4765H263.859L263.131 25.207H262.596L262.99 23.4765Z" fill="#F9F2EA"/>
<path d="M58.0586 7.02816H70.7538V11.1231H63.2639V14.3781H68.7878V18.2891H63.2639V25.5342H58.0586V7.02816Z" fill="#F9F2EA"/>
<path d="M85.466 11.1497H78.6936V14.1683H84.6692V18.0793H78.6936V21.4133H85.466V25.5342H73.4883V7.02816H85.466V11.1497Z" fill="#F9F2EA"/>
<path d="M88.5742 7.02816H94.8676L99.5692 19.0501L104.164 7.02816H110.432V25.5342H105.226V15.323L101.694 25.5342H97.338L93.7789 15.244V25.5342H88.5742V7.02816Z" fill="#F9F2EA"/>
<path d="M113.936 7.02816H119.14V25.5342H113.936V7.02816Z" fill="#F9F2EA"/>
<path d="M139.989 7.02816V25.5342H134.783L127.851 15.1915V25.5342H122.646V7.02816H127.851L134.783 17.5016V7.02816H139.989Z" fill="#F9F2EA"/>
<path d="M143.494 7.02816H148.699V25.5342H143.494V7.02816Z" fill="#F9F2EA"/>
<path d="M159.271 25.7178C155.101 25.7178 151.861 23.7496 151.648 19.7855H157.2C157.306 21.1766 158.129 21.6494 159.085 21.6494C160.014 21.6494 160.732 21.1766 160.732 20.3107C160.705 17.3446 151.622 18.7357 151.702 12.3047C151.702 8.68187 154.756 6.73963 158.714 6.73963C163.016 6.73963 165.831 8.81334 166.017 12.488H160.36C160.307 11.3333 159.589 10.808 158.633 10.808C157.863 10.7821 157.252 11.2283 157.252 12.1208C157.252 14.8765 166.256 13.9847 166.256 19.9169C166.256 23.1719 163.707 25.7178 159.271 25.7178Z" fill="#F9F2EA"/>
<path d="M168.168 7.02816H183.306V11.1231H178.313V25.5342H173.108V11.1231H168.168V7.02816Z" fill="#F9F2EA"/>
<path d="M194.964 22.5156H188.324L187.316 25.5342H181.844L188.67 7.02879H194.672L201.471 25.5342H195.973L194.964 22.5156ZM191.645 12.5939L189.653 18.5786H193.663L191.645 12.5939Z" fill="#F9F2EA"/>
<path d="M26.6626 5.39532C24.892 4.73231 23.3795 4.74685 22.6341 4.76139C21.4033 4.78477 20.3876 4.99777 19.6765 5.19749L15.1816 0.75491C15.785 0.510944 16.6351 0.232216 17.6825 0.0906401C18.2084 0.0192204 19.5312 -0.118564 21.1705 0.208199C23.0807 0.589317 24.3851 1.39579 25.1165 1.85718C28.1566 3.77478 29.7884 6.5273 30.5274 8.00879C29.8531 7.27752 28.5887 6.11647 26.6626 5.39532Z" fill="#F06043"/>
<path d="M23.198 11.8308C25.735 11.8308 27.7981 13.8704 27.7981 16.3777C27.7981 18.8844 25.735 20.9239 23.198 20.9239C20.6616 20.9239 18.5979 18.8844 18.5979 16.3777C18.5979 13.8704 20.6616 11.8308 23.198 11.8308ZM23.198 6.97743C17.9457 6.97743 13.6875 11.1862 13.6875 16.3777C13.6875 21.5686 17.9457 25.7773 23.198 25.7773C28.4509 25.7773 32.7091 21.5686 32.7091 16.3777C32.7091 11.1862 28.4509 6.97743 23.198 6.97743Z" fill="#60AD8F"/>
<path d="M42.4195 25.7773C38.2387 25.7773 34.9905 23.8035 34.7773 19.8299H40.3424C40.449 21.2242 41.2744 21.6982 42.233 21.6982C43.1649 21.6982 43.8843 21.2242 43.8843 20.3557C43.8571 17.382 34.7507 18.7769 34.8306 12.3289C34.8306 8.6972 37.8929 6.7499 41.8606 6.7499C46.1739 6.7499 48.9964 8.82866 49.183 12.5134H43.5113C43.458 11.3555 42.7386 10.8291 41.78 10.8291C41.0079 10.8025 40.3957 11.25 40.3957 12.145C40.3957 14.9082 49.4228 14.0133 49.4228 19.9613C49.4228 23.2246 46.8661 25.7773 42.4195 25.7773Z" fill="#F9F2EA"/>
<path d="M0 6.97817H12.7282V11.0839H5.21931V14.3471H10.7577V18.2682H5.21931V25.5322H0V6.97817Z" fill="#F9F2EA"/>
</svg>
